<svg xmlns="http://www.w3.org/2000/svg" viewBox="1519.333 21.167 19.667 19.667"><defs><filter id="a" x="1519.333" y="21.167" width="19.667" height="19.667" filterUnits="userSpaceOnUse"><feOffset dy="1"/><feGaussianBlur stdDeviation=".5" result="blur"/><feFlood flood-opacity=".051"/><feComposite operator="in" in2="blur"/><feComposite in="SourceGraphic"/></filter></defs><path data-name="Path 151" d="M6 15.333A1.667 1.667 0 1 0 7.667 17 1.664 1.664 0 0 0 6 15.333zM1 2v1.667h1.667l3 6.325-1.125 2.041a1.611 1.611 0 0 0-.208.8A1.672 1.672 0 0 0 6 14.5h10v-1.667H6.35a.206.206 0 0 1-.208-.208l.025-.1.75-1.358h6.208a1.659 1.659 0 0 0 1.458-.858L17.567 4.9a.814.814 0 0 0 .1-.4.836.836 0 0 0-.833-.833H4.508L3.725 2H1zm13.333 13.333A1.667 1.667 0 1 0 16 17a1.664 1.664 0 0 0-1.667-1.667z" transform="translate(1519.83 19.67)" fill="#fff" filter="url(#a)"/></svg>