<svg id="Layer_1" xmlns="http://www.w3.org/2000/svg" viewBox="0 0 419.5 123.2"><style>.st2{fill:#fff}.st3{fill:#cf1148}.st4{fill:#00536d}.st5{fill:#e8f6fe}.st6{fill:#8cd3f6}.st7{fill:#e50c53}.st10{fill:#e8c39e}.st11{fill:#e9d7ca}.st12{fill:#ceae8e}.st15{fill:#b59a7e}.st17{fill:#7d4e24}.st20{fill:#398c38}.st23{fill:#215720}.st24{fill:#8e710c}.st25{fill:#2a6327}.st26{fill:#4e3111}</style><pattern x="-73.7" y="345.1" width="69" height="69" patternUnits="userSpaceOnUse" id="Polka_Dot_Pattern" viewBox="2.1 -70.9 69 69" overflow="visible"><path fill="none" d="M71.1-1.9h-69v-69h69z"/><path fill="#f8c05a" d="M71.1-1.9h-69v-69h69z"/><path class="st2" d="M61.8-71.7v.2c-.1.1-.1.1-.2.1-.1.1-.1.3-.1.4-.2.1 0 .2 0 .3v.2c0 .1 0 .3.1.4.1.2.3.4.4.5.2.1.4.6.6.6.2 0 .4-.1.5-.1.2 0 .4 0 .6-.1.2-.1.1-.3.3-.5.1-.1.3 0 .4-.1.2-.1.3-.3.4-.5v-.2c0-.1.1-.2.1-.3 0-.1-.1-.1-.1-.2v-.3c0-.2 0-.4-.1-.5-.4-.7-1.2-.9-2-.8-.2 0-.3.1-.4.2-.2.1-.1.2-.3.2-.1 0-.2.1-.2.2v.3c0 .1 0 .1 0 0m-7.7 0v.2c-.1.1-.1.1-.2.1-.1.1-.1.3-.1.4-.2.1 0 .2 0 .3v.2c0 .1 0 .3.1.4.1.2.3.4.4.5.2.1.4.6.6.6.2 0 .4-.1.5-.1.2 0 .4 0 .6-.1.2-.1.1-.3.3-.5.1-.1.3 0 .4-.1.2-.1.3-.3.4-.5v-.2c0-.1.1-.2.1-.3 0-.1-.1-.1-.1-.2v-.3c0-.2 0-.4-.1-.5-.4-.7-1.2-.9-2-.8-.2 0-.3.1-.4.2-.2.1-.1.2-.3.2-.1 0-.2.1-.2.2v.3c0 .1 0 .1 0 0m-7.7 0v.2c-.1.1-.1.1-.2.1-.1.1-.1.3-.1.4-.2.1 0 .2 0 .3v.2c0 .1 0 .3.1.4.1.2.3.4.4.5.2.1.4.6.6.6.2 0 .4-.1.5-.1.2 0 .4 0 .6-.1.2-.1.1-.3.3-.5.1-.1.3 0 .4-.1.2-.1.3-.3.4-.5v-.2c0-.1.1-.2.1-.3 0-.1-.1-.1-.1-.2v-.3c0-.2 0-.4-.1-.5-.4-.7-1.2-.9-2-.8-.2 0-.3.1-.4.2-.2.1-.1.2-.3.2-.1 0-.2.1-.2.2v.3c0 .1 0 .1 0 0m-7.6 0v.2c-.1.1-.1.1-.2.1-.1.1-.1.3-.1.4-.2.1 0 .2 0 .3v.2c0 .1 0 .3.1.4.1.2.3.4.4.5.2.1.4.6.6.6.2 0 .4-.1.5-.1.2 0 .4 0 .6-.1.2-.1.1-.3.3-.5.1-.1.3 0 .4-.1.2-.1.3-.3.4-.5v-.2c0-.1.1-.2.1-.3 0-.1-.1-.1-.1-.2v-.3c0-.2 0-.4-.1-.5-.4-.7-1.2-.9-2-.8-.2 0-.3.1-.4.2-.2.1-.1.2-.3.2-.1 0-.2.1-.2.2v.3c0 .1 0 .1 0 0m-7.7 0v.2c-.1.1-.1.1-.2.1-.1.1-.1.3-.1.4-.2.1 0 .2 0 .3v.2c0 .1 0 .3.1.4.1.2.3.4.4.5.2.1.4.6.6.6.2 0 .4-.1.5-.1.2 0 .4 0 .6-.1.2-.1.1-.3.3-.5.1-.1.3 0 .4-.1.2-.1.3-.3.4-.5v-.2c0-.1.1-.2.1-.3 0-.1-.1-.1-.1-.2v-.3c0-.2 0-.4-.1-.5-.4-.7-1.2-.9-2-.8-.2 0-.3.1-.4.2-.2.1-.1.2-.3.2-.1 0-.2.1-.2.2v.3c0 .1 0 .1 0 0m-7.7 0v.2c-.1.1-.1.1-.2.1-.1.1-.1.3-.1.4-.2.1 0 .2 0 .3v.2c0 .1 0 .3.1.4.1.2.3.4.4.5.2.1.4.6.6.6.2 0 .4-.1.5-.1.2 0 .4 0 .6-.1.2-.1.1-.3.3-.5.1-.1.3 0 .4-.1.2-.1.3-.3.4-.5v-.2c0-.1.1-.2.1-.3 0-.1-.1-.1-.1-.2v-.3c0-.2 0-.4-.1-.5-.4-.7-1.2-.9-2-.8-.2 0-.3.1-.4.2-.2.1-.1.2-.3.2-.1 0-.2.1-.2.2v.3c0 .1 0 .1 0 0m-7.6 0v.2c-.1.1-.1.1-.2.1-.1.1-.1.3-.1.4-.2.1 0 .2 0 .3v.2c0 .1 0 .3.1.4.1.2.3.4.4.5.2.1.4.6.6.6.2 0 .4-.1.5-.1.2 0 .4 0 .6-.1.2-.1.1-.3.3-.5.1-.1.3 0 .4-.1.2-.1.3-.3.4-.5v-.2c0-.1.1-.2.1-.3 0-.1-.1-.1-.1-.2v-.3c0-.2 0-.4-.1-.5-.4-.7-1.2-.9-2-.8-.2 0-.3.1-.4.2-.2.1-.1.2-.3.2-.1 0-.2.1-.2.2v.3c0 .1 0 .1 0 0m-7.7 0v.2l-.2.2c-.1.1-.1.3-.1.4-.2.1 0 .2 0 .3v.2c0 .1 0 .3.1.4.1.2.3.4.4.5.2.1.4.6.6.6.2 0 .4-.1.5-.1.2 0 .4 0 .6-.1.2-.1.1-.3.3-.5.1-.1.3 0 .4-.1.2-.1.3-.3.4-.5v-.2c0-.1.1-.2.1-.3 0-.1-.1-.1-.1-.2v-.3c0-.2 0-.4-.1-.5-.4-.7-1.2-.9-2-.8-.2 0-.3.1-.4.2-.2.1-.1.2-.3.2-.1 0-.2.1-.2.2v.2c0 .1 0 .1 0 0m-7.7 0v.2c-.1.1-.1.1-.2.1-.1.1-.1.3-.1.4-.2.1 0 .2 0 .3v.2c0 .1 0 .3.1.4.1.2.3.4.4.5.2.2.4.6.6.7.2 0 .4-.1.5-.1.2 0 .4 0 .6-.1.2-.1.1-.3.3-.5.1-.1.3 0 .4-.1.2-.1.3-.3.4-.5v-.2c0-.1.1-.2.1-.3 0-.1-.1-.1-.1-.2v-.3c0-.2 0-.4-.1-.5-.4-.7-1.2-.9-2-.8-.2 0-.3.1-.4.2-.2.1-.1.2-.3.2-.1 0-.2.1-.2.2v.2c0 .1 0 .1 0 0m69 0v.2c-.1.1-.1.1-.2.1-.1.1-.1.3-.1.4-.2.1 0 .2 0 .3v.2c0 .1 0 .3.1.4.1.2.3.4.4.5.2.1.4.6.6.6.2 0 .4-.1.5-.1.2 0 .4 0 .6-.1.2-.1.1-.3.3-.5.1-.1.3 0 .4-.1.2-.1.3-.3.4-.5v-.2c0-.1.1-.2.1-.3 0-.1-.1-.1-.1-.2v-.3c0-.2 0-.4-.1-.5-.4-.7-1.2-.9-2-.8-.2 0-.3.1-.4.2-.2.1-.1.2-.3.2-.1 0-.2.1-.2.2v.3c0 .1 0 .1 0 0"/><path class="st2" d="M.5-71.7v.2c-.1.1-.1.1-.2.1-.1.1-.1.3-.1.4-.2.1 0 .2 0 .3v.2c0 .1 0 .3.1.4.1.2.3.4.4.5.2.2.3.6.6.7.2 0 .4-.1.5-.1.2 0 .4 0 .6-.1.2-.1.1-.3.3-.5.1-.1.3 0 .4-.1.2-.1.3-.3.4-.5v-.2c0-.1.1-.2.1-.3 0-.1-.1-.1-.1-.2v-.3c0-.2 0-.4-.1-.5-.4-.7-1.2-.9-2-.8-.2 0-.3.1-.4.2-.2.1-.1.2-.3.2-.1 0-.2.1-.2.2v.2c0 .1 0 .1 0 0M69.4-64v.2c-.1.1-.1.1-.2.1-.1.1-.1.3-.1.4-.2.1 0 .2 0 .3v.2c0 .1 0 .3.1.4.1.2.3.4.4.5.2.1.4.6.6.6.2 0 .4-.1.5-.1.2 0 .4 0 .6-.1.2-.1.1-.3.3-.5.1-.1.3 0 .4-.1.2-.1.3-.3.4-.5v-.2c0-.1.1-.2.1-.3 0-.1-.1-.1-.1-.2v-.3c0-.2 0-.4-.1-.5-.4-.7-1.2-.9-2-.8-.2 0-.3.1-.4.2-.2.1-.1.2-.3.2-.1 0-.2.1-.2.2v.3m-7.6 0v.2c-.1.1-.1.1-.2.1-.1.1-.1.3-.1.4-.2.1 0 .2 0 .3v.2c0 .1 0 .3.1.4.1.2.3.4.4.5.2.1.4.6.6.6.2 0 .4-.1.5-.1.2 0 .4 0 .6-.1.2-.1.1-.3.3-.5.1-.1.3 0 .4-.1.2-.1.3-.3.4-.5v-.2c0-.1.1-.2.1-.3 0-.1-.1-.1-.1-.2v-.3c0-.2 0-.4-.1-.5-.4-.7-1.2-.9-2-.8-.2 0-.3.1-.4.2-.2.1-.1.2-.3.2-.1 0-.2.1-.2.2v.3m-7.7 0v.2c-.1.1-.1.1-.2.1-.1.1-.1.3-.1.4-.2.1 0 .2 0 .3v.2c0 .1 0 .3.1.4.1.2.3.4.4.5.2.1.4.6.6.6.2 0 .4-.1.5-.1.2 0 .4 0 .6-.1.2-.1.1-.3.3-.5.1-.1.3 0 .4-.1.2-.1.3-.3.4-.5v-.2c0-.1.1-.2.1-.3 0-.1-.1-.1-.1-.2v-.3c0-.2 0-.4-.1-.5-.4-.7-1.2-.9-2-.8-.2 0-.3.1-.4.2-.2.1-.1.2-.3.2-.1 0-.2.1-.2.2v.3m-7.6 0v.2c-.1.1-.1.1-.2.1-.1.1-.1.3-.1.4-.2.1 0 .2 0 .3v.2c0 .1 0 .3.1.4.1.2.3.4.4.5.2.1.4.6.6.6.2 0 .4-.1.5-.1.2 0 .4 0 .6-.1.2-.1.1-.3.3-.5.1-.1.3 0 .4-.1.2-.1.3-.3.4-.5v-.2c0-.1.1-.2.1-.3 0-.1-.1-.1-.1-.2v-.3c0-.2 0-.4-.1-.5-.4-.7-1.2-.9-2-.8-.2 0-.3.1-.4.2-.2.1-.1.2-.3.2-.1 0-.2.1-.2.2v.3m-7.7 0v.2c-.1.1-.1.1-.2.1-.1.1-.1.3-.1.4-.2.1 0 .2 0 .3v.2c0 .1 0 .3.1.4.1.2.3.4.4.5.2.1.4.6.6.6.2 0 .4-.1.5-.1.2 0 .4 0 .6-.1.2-.1.1-.3.3-.5.1-.1.3 0 .4-.1.2-.1.3-.3.4-.5v-.2c0-.1.1-.2.1-.3 0-.1-.1-.1-.1-.2v-.3c0-.2 0-.4-.1-.5-.4-.7-1.2-.9-2-.8-.2 0-.3.1-.4.2-.2.1-.1.2-.3.2-.1 0-.2.1-.2.2v.3m-7.7 0v.2c-.1.1-.1.1-.2.1-.1.1-.1.3-.1.4-.2.1 0 .2 0 .3v.2c0 .1 0 .3.1.4.1.2.3.4.4.5.2.1.4.6.6.6.2 0 .4-.1.5-.1.2 0 .4 0 .6-.1.2-.1.1-.3.3-.5.1-.1.3 0 .4-.1.2-.1.3-.3.4-.5v-.2c0-.1.1-.2.1-.3 0-.1-.1-.1-.1-.2v-.3c0-.2 0-.4-.1-.5-.4-.7-1.2-.9-2-.8-.2 0-.3.1-.4.2-.2.1-.1.2-.3.2-.1 0-.2.1-.2.2v.3m-7.6 0v.2c-.1.1-.1.1-.2.1-.1.1-.1.3-.1.4-.2.1 0 .2 0 .3v.2c0 .1 0 .3.1.4.1.2.3.4.4.5.2.1.4.6.6.6.2 0 .4-.1.5-.1.2 0 .4 0 .6-.1.2-.1.1-.3.3-.5.1-.1.3 0 .4-.1.2-.1.3-.3.4-.5v-.2c0-.1.1-.2.1-.3 0-.1-.1-.1-.1-.2v-.3c0-.2 0-.4-.1-.5-.4-.7-1.2-.9-2-.8-.2 0-.3.1-.4.2-.2.1-.1.2-.3.2-.1 0-.2.1-.2.2v.3m-7.7 0v.2c-.1.1-.1.1-.2.1-.1.1-.1.3-.1.4-.2.1 0 .2 0 .3v.2c0 .1 0 .3.1.4.1.2.3.4.4.5.2.1.4.6.6.6.2 0 .4-.1.5-.1.2 0 .4 0 .6-.1.2-.1.1-.3.3-.5.1-.1.3 0 .4-.1.2-.1.3-.3.4-.5v-.2c0-.1.1-.2.1-.3 0-.1-.1-.1-.1-.2v-.3c0-.2 0-.4-.1-.5-.4-.7-1.2-.9-2-.8-.2 0-.3.1-.4.2-.2.1-.1.2-.3.2-.1 0-.2.1-.2.2v.3m-7.6 0v.2c-.1.1-.2.1-.2.1-.1.1-.1.3-.1.4-.2.1 0 .2 0 .3v.2c0 .1 0 .3.1.4 0 .2.2.4.3.5.2.1.4.6.6.6.2 0 .4-.1.5-.1.2 0 .4 0 .6-.1.2-.1.1-.3.3-.5.1-.1.3 0 .4-.1.2-.1.3-.3.4-.5v-.2c0-.1.1-.2.1-.3 0-.1-.1-.1-.1-.2v-.3c0-.2 0-.4-.1-.5-.4-.7-1.2-.9-2-.8-.2 0-.3.1-.4.2-.2.1-.1.2-.3.2-.1 0-.2.1-.2.2.1.3.1.2.1.3-.1 0-.1 0 0 0M.5-64v.2c-.1.1-.1.1-.2.1-.1.1-.1.3-.1.4-.2.1 0 .2 0 .3v.2c0 .1 0 .3.1.4.1.2.3.4.4.5.2.1.4.6.6.6.2 0 .4-.1.5-.1.2 0 .4 0 .6-.1.2-.1.1-.3.3-.5.1 0 .3.1.4 0 .2-.1.3-.3.4-.5v-.2c0-.1.1-.2.1-.3 0-.1-.1-.1-.1-.2v-.3c0-.2 0-.4-.1-.5-.4-.7-1.2-.9-2-.8-.2 0-.3.1-.4.2-.2.1-.1.2-.3.2-.1 0-.2.1-.2.2v.2m68.9 7.7v.2c-.1.1-.1.1-.2.1-.1.1-.1.3-.1.4-.2.1 0 .2 0 .3v.2c0 .1 0 .3.1.4.1.2.3.4.4.5.2.1.4.6.6.6.2 0 .4-.1.5-.1.2 0 .4 0 .6-.1.2-.1.1-.3.3-.5.1-.1.3 0 .4-.1.2-.1.3-.3.4-.5v-.2c0-.1.1-.2.1-.3 0-.1-.1-.1-.1-.2v-.3c0-.2 0-.4-.1-.5-.4-.7-1.2-.9-2-.8-.2 0-.3.1-.4.2-.2.1-.1.2-.3.2-.1 0-.2.1-.2.2v.3m-7.6 0v.2c-.1.1-.1.1-.2.1-.1.1-.1.3-.1.4-.2.1 0 .2 0 .3v.2c0 .1 0 .3.1.4.1.2.3.4.4.5.2.1.4.6.6.6.2 0 .4-.1.5-.1.2 0 .4 0 .6-.1.2-.1.1-.3.3-.5.1-.1.3 0 .4-.1.2-.1.3-.3.4-.5v-.2c0-.1.1-.2.1-.3 0-.1-.1-.1-.1-.2v-.3c0-.2 0-.4-.1-.5-.4-.7-1.2-.9-2-.8-.2 0-.3.1-.4.2-.2.1-.1.2-.3.2-.1 0-.2.1-.2.2v.3m-7.7 0v.2c-.1 0-.1 0-.2.1s-.1.3-.1.4c-.2.1 0 .2 0 .3v.2c0 .1 0 .3.1.4.1.2.3.4.4.5.2.1.4.6.6.6.2 0 .4-.1.5-.1.2 0 .4 0 .6-.1.2-.1.1-.3.3-.5.1-.1.3 0 .4-.1.2-.1.3-.3.4-.5v-.2c0-.1.1-.2.1-.3 0-.1-.1-.1-.1-.2v-.3c0-.2 0-.4-.1-.5-.4-.7-1.2-.9-2-.8-.2 0-.3.1-.4.2-.2.1-.1.2-.3.2-.1 0-.2.1-.2.2v.3m-7.6 0v.2c-.1.1-.1.1-.2.1-.1.1-.1.3-.1.4-.2.1 0 .2 0 .3v.2c0 .1 0 .3.1.4.1.2.3.4.4.5.2.1.4.6.6.6.2 0 .4-.1.5-.1.2 0 .4 0 .6-.1.2-.1.1-.3.3-.5.1-.1.3 0 .4-.1.2-.1.3-.3.4-.5v-.2c0-.1.1-.2.1-.3 0-.1-.1-.1-.1-.2v-.3c0-.2 0-.4-.1-.5-.4-.7-1.2-.9-2-.8-.2 0-.3.1-.4.2-.2.1-.1.2-.3.2-.1 0-.2.1-.2.2v.3m-7.7 0v.2c-.1.1-.1.1-.2.1-.1.1-.1.3-.1.4-.2.1 0 .2 0 .3v.2c0 .1 0 .3.1.4.1.2.3.4.4.5.2.1.4.6.6.6.2 0 .4-.1.5-.1.2 0 .4 0 .6-.1.2-.1.1-.3.3-.5.1-.1.3 0 .4-.1.2-.1.3-.3.4-.5v-.2c0-.1.1-.2.1-.3 0-.1-.1-.1-.1-.2v-.3c0-.2 0-.4-.1-.5-.4-.7-1.2-.9-2-.8-.2 0-.3.1-.4.2-.2.1-.1.2-.3.2-.1 0-.2.1-.2.2v.3m-7.7 0v.2c-.1.1-.1.1-.2.1-.1.1-.1.3-.1.4-.2.1 0 .2 0 .3v.2c0 .1 0 .3.1.4.1.2.3.4.4.5.2.1.4.6.6.6.2 0 .4-.1.5-.1.2 0 .4 0 .6-.1.2-.1.1-.3.3-.5.1-.1.3 0 .4-.1.2-.1.3-.3.4-.5v-.2c0-.1.1-.2.1-.3 0-.1-.1-.1-.1-.2v-.3c0-.2 0-.4-.1-.5-.4-.7-1.2-.9-2-.8-.2 0-.3.1-.4.2-.2.1-.1.2-.3.2-.1 0-.2.1-.2.2v.3m-7.6 0v.2c-.1.1-.1.1-.2.1-.1.1-.1.3-.1.4-.2.1 0 .2 0 .3v.2c0 .1 0 .3.1.4.1.2.3.4.4.5.2.1.4.6.6.6.2 0 .4-.1.5-.1.2 0 .4 0 .6-.1.2-.1.1-.3.3-.5.1-.1.3 0 .4-.1.2-.1.3-.3.4-.5v-.2c0-.1.1-.2.1-.3 0-.1-.1-.1-.1-.2v-.3c0-.2 0-.4-.1-.5-.4-.7-1.2-.9-2-.8-.2 0-.3.1-.4.2-.2.1-.1.2-.3.2-.1 0-.2.1-.2.2v.3m-7.7 0v.2c-.1.1-.1.1-.2.1-.1.1-.1.3-.1.4-.2.1 0 .2 0 .3v.2c0 .1 0 .3.1.4.1.2.3.4.4.5.2.1.4.6.6.6.2 0 .4-.1.5-.1.2 0 .4 0 .6-.1.2-.1.1-.3.3-.5.1-.1.3 0 .4-.1.2-.1.3-.3.4-.5v-.2c0-.1.1-.2.1-.3 0-.1-.1-.1-.1-.2v-.3c0-.2 0-.4-.1-.5-.4-.7-1.2-.9-2-.8-.2 0-.3.1-.4.2-.2.1-.1.2-.3.2-.1 0-.2.1-.2.2v.3m-7.6 0v.2c-.1 0-.2 0-.2.1-.1.1-.1.3-.1.4-.2.1 0 .2 0 .3v.2c0 .1 0 .3.1.4.1.2.3.4.4.5.2.1.4.6.6.6.2 0 .4-.1.5-.1.2 0 .4 0 .6-.1.2-.1.1-.3.3-.5.1-.1.3 0 .4-.1.2-.1.3-.3.4-.5v-.2c0-.1.1-.2.1-.3 0-.1-.1-.1-.1-.2v-.3c0-.2 0-.4-.1-.5-.4-.7-1.2-.9-2-.8-.2 0-.3.1-.4.2-.2.1-.1.2-.3.2-.1 0-.2.1-.2.2v.3c-.1 0-.1 0 0 0m-7.7 0v.2c-.1.1-.1.1-.2.1-.1.1-.1.3-.1.4-.2.1 0 .2 0 .3v.2c0 .1 0 .3.1.4.1.2.3.4.4.5.2.1.4.6.6.6.2 0 .4-.1.5-.1.2 0 .4 0 .6-.1.2-.1.1-.3.3-.5.1-.1.3 0 .4-.1.2-.1.3-.3.4-.5v-.2c0-.1.1-.2.1-.3 0-.1-.1-.1-.1-.2v-.3c0-.2 0-.4-.1-.5-.4-.7-1.2-.9-2-.8-.2 0-.3.1-.4.2-.2.1-.1.2-.3.2-.1 0-.2.1-.2.2v.3m68.9 7.6v.2c-.1.1-.1.1-.2.1-.1.1-.1.3-.1.4-.2.1 0 .2 0 .3v.2c0 .1 0 .3.1.4.1.2.3.4.4.5.2.1.4.6.6.6.2 0 .4-.1.5-.1.2 0 .4 0 .6-.1.2-.1.1-.3.3-.5.1-.1.3 0 .4-.1.2-.1.3-.3.4-.5v-.2c0-.1.1-.2.1-.3 0-.1-.1-.1-.1-.2v-.3c0-.2 0-.4-.1-.5-.4-.7-1.2-.9-2-.8-.2 0-.3.1-.4.2-.2.1-.1.2-.3.2-.1 0-.2.1-.2.2v.3m-7.6 0v.2c-.1.1-.1.1-.2.1-.1.1-.1.3-.1.4-.2.1 0 .2 0 .3v.2c0 .1 0 .3.1.4.1.2.3.4.4.5.2.1.4.6.6.6.2 0 .4-.1.5-.1.2 0 .4 0 .6-.1.2-.1.1-.3.3-.5.1-.1.3 0 .4-.1.2-.1.3-.3.4-.5v-.2c0-.1.1-.2.1-.3 0-.1-.1-.1-.1-.2v-.3c0-.2 0-.4-.1-.5-.4-.7-1.2-.9-2-.8-.2 0-.3.1-.4.2-.2.1-.1.2-.3.2-.1 0-.2.1-.2.2v.3m-7.7 0v.2c-.1.1-.1.1-.2.1-.1.1-.1.3-.1.4-.2.1 0 .2 0 .3v.2c0 .1 0 .3.1.4.1.2.3.4.4.5.2.1.4.6.6.6.2 0 .4-.1.5-.1.2 0 .4 0 .6-.1.2-.1.1-.3.3-.5.1-.1.3 0 .4-.1.2-.1.3-.3.4-.5v-.2c0-.1.1-.2.1-.3 0-.1-.1-.1-.1-.2v-.3c0-.2 0-.4-.1-.5-.4-.7-1.2-.9-2-.8-.2 0-.3.1-.4.2-.2.1-.1.2-.3.2-.1 0-.2.1-.2.2v.3m-7.6 0v.2c-.1.1-.1.1-.2.1-.1.1-.1.3-.1.4-.2.1 0 .2 0 .3v.2c0 .1 0 .3.1.4.1.2.3.4.4.5.2.1.4.6.6.6.2 0 .4-.1.5-.1.2 0 .4 0 .6-.1.2-.1.1-.3.3-.5.1-.1.3 0 .4-.1.2-.1.3-.3.4-.5v-.2c0-.1.1-.2.1-.3 0-.1-.1-.1-.1-.2v-.3c0-.2 0-.4-.1-.5-.4-.7-1.2-.9-2-.8-.2 0-.3.1-.4.2-.2.1-.1.2-.3.2-.1 0-.2.1-.2.2v.3m-7.7 0v.2c-.1.1-.1.1-.2.1-.1.1-.1.3-.1.4-.2.1 0 .2 0 .3v.2c0 .1 0 .3.1.4.1.2.3.4.4.5.2.1.4.6.6.6.2 0 .4-.1.5-.1.2 0 .4 0 .6-.1.2-.1.1-.3.3-.5.1-.1.3 0 .4-.1.2-.1.3-.3.4-.5v-.2c0-.1.1-.2.1-.3 0-.1-.1-.1-.1-.2v-.3c0-.2 0-.4-.1-.5-.4-.7-1.2-.9-2-.8-.2 0-.3.1-.4.2-.2.1-.1.2-.3.2-.1 0-.2.1-.2.2v.3m-7.7 0v.2c-.1.1-.1.1-.2.1-.1.1-.1.3-.1.4-.2.1 0 .2 0 .3v.2c0 .1 0 .3.1.4.1.2.3.4.4.5.2.1.4.6.6.6.2 0 .4-.1.5-.1.2 0 .4 0 .6-.1.2-.1.1-.3.3-.5.1-.1.3 0 .4-.1.2-.1.3-.3.4-.5v-.2c0-.1.1-.2.1-.3 0-.1-.1-.1-.1-.2v-.3c0-.2 0-.4-.1-.5-.4-.7-1.2-.9-2-.8-.2 0-.3.1-.4.2-.2.1-.1.2-.3.2-.1 0-.2.1-.2.2v.3m-7.6 0v.2c-.1.1-.1.1-.2.1-.1.1-.1.3-.1.4-.2.1 0 .2 0 .3v.2c0 .1 0 .3.1.4.1.2.3.4.4.5.2.1.4.6.6.6.2 0 .4-.1.5-.1.2 0 .4 0 .6-.1.2-.1.1-.3.3-.5.1-.1.3 0 .4-.1.2-.1.3-.3.4-.5v-.2c0-.1.1-.2.1-.3 0-.1-.1-.1-.1-.2v-.3c0-.2 0-.4-.1-.5-.4-.7-1.2-.9-2-.8-.2 0-.3.1-.4.2-.2.1-.1.2-.3.2-.1 0-.2.1-.2.2v.3m-7.7 0v.2c-.1.1-.1.1-.2.1-.1.1-.1.3-.1.4-.2.1 0 .2 0 .3v.2c0 .1 0 .3.1.4.1.2.3.4.4.5.2.1.4.6.6.6.2 0 .4-.1.5-.1.2 0 .4 0 .6-.1.2-.1.1-.3.3-.5.1-.1.3 0 .4-.1.2-.1.3-.3.4-.5v-.2c0-.1.1-.2.1-.3 0-.1-.1-.1-.1-.2v-.3c0-.2 0-.4-.1-.5-.4-.7-1.2-.9-2-.8-.2 0-.3.1-.4.2-.2.1-.1.2-.3.2-.1 0-.2.1-.2.2v.3m-7.6 0v.2c-.1.1-.2.1-.2.1-.1.1-.1.3-.1.4-.2.1 0 .2 0 .3v.2c0 .1 0 .3.1.4.1.2.3.4.4.5.1.2.3.6.5.6s.4-.1.5-.1c.2 0 .4 0 .6-.1.2-.1.1-.3.3-.5.1-.1.3 0 .4-.1.2-.1.3-.3.4-.5v-.2c0-.1.1-.2.1-.3 0-.1-.1-.1-.1-.2v-.3c0-.2 0-.4-.1-.5-.4-.7-1.2-.9-2-.8-.2 0-.3.1-.4.2-.2.1-.1.2-.3.2-.1 0-.2.1-.2.2.1.3.1.2.1.3-.1 0-.1 0 0 0m-7.7 0v.2c-.1.1-.1.1-.2.1-.1.1-.1.3-.1.4-.2.1 0 .2 0 .3v.2c0 .1 0 .3.1.4.1.2.3.4.4.5.2.2.3.6.6.6.2 0 .4-.1.5-.1.2 0 .4 0 .6-.1.2-.1.1-.3.3-.5.1-.1.3 0 .4-.1.2-.1.3-.3.4-.5v-.2c0-.1.1-.2.1-.3 0-.1-.1-.1-.1-.2v-.3c0-.2 0-.4-.1-.5-.4-.7-1.2-.9-2-.8-.2 0-.3.1-.4.2-.2.1-.1.2-.3.2-.1 0-.2.1-.2.2v.3M69.4-41v.2c-.1.1-.1.1-.2.1-.1.1-.1.3-.1.4-.2.1 0 .2 0 .3v.2c0 .1 0 .3.1.4.1.2.3.4.4.5.2.1.4.6.6.6.2 0 .4-.1.5-.1.2 0 .4 0 .6-.1.2-.1.1-.3.3-.5.1-.1.3 0 .4-.1.2-.1.3-.3.4-.5v-.2c0-.1.1-.2.1-.3 0-.1-.1-.1-.1-.2v-.3c0-.2 0-.4-.1-.5-.4-.7-1.2-.9-2-.8-.2 0-.3.1-.4.2-.2.1-.1.2-.3.2-.1 0-.2.1-.2.2v.3m-7.6 0v.2c-.1.1-.1.1-.2.1-.1.1-.1.3-.1.4-.2.1 0 .2 0 .3v.2c0 .1 0 .3.1.4.1.2.3.4.4.5.2.1.4.6.6.6.2 0 .4-.1.5-.1.2 0 .4 0 .6-.1.2-.1.1-.3.3-.5.1-.1.3 0 .4-.1.2-.1.3-.3.4-.5v-.2c0-.1.1-.2.1-.3 0-.1-.1-.1-.1-.2v-.3c0-.2 0-.4-.1-.5-.4-.7-1.2-.9-2-.8-.2 0-.3.1-.4.2-.2.1-.1.2-.3.2-.1 0-.2.1-.2.2v.3m-7.7 0v.2c-.1.1-.1.1-.2.1-.1.1-.1.3-.1.4-.2.1 0 .2 0 .3v.2c0 .1 0 .3.1.4.1.2.3.4.4.5.2.1.4.6.6.6.2 0 .4-.1.5-.1.2 0 .4 0 .6-.1.2-.1.1-.3.3-.5.1-.1.3 0 .4-.1.2-.1.3-.3.4-.5v-.2c0-.1.1-.2.1-.3 0-.1-.1-.1-.1-.2v-.3c0-.2 0-.4-.1-.5-.4-.7-1.2-.9-2-.8-.2 0-.3.1-.4.2-.2.1-.1.2-.3.2-.1 0-.2.1-.2.2v.3m-7.6 0v.2c-.1.1-.1.1-.2.1-.1.1-.1.3-.1.4-.2.1 0 .2 0 .3v.2c0 .1 0 .3.1.4.1.2.3.4.4.5.2.1.4.6.6.6.2 0 .4-.1.5-.1.2 0 .4 0 .6-.1.2-.1.1-.3.3-.5.1-.1.3 0 .4-.1.2-.1.3-.3.4-.5v-.2c0-.1.1-.2.1-.3 0-.1-.1-.1-.1-.2v-.3c0-.2 0-.4-.1-.5-.4-.7-1.2-.9-2-.8-.2 0-.3.1-.4.2-.2.1-.1.2-.3.2-.1 0-.2.1-.2.2v.3m-7.7 0v.2c-.1.1-.1.1-.2.1-.1.1-.1.3-.1.4-.2.1 0 .2 0 .3v.2c0 .1 0 .3.1.4.1.2.3.4.4.5.2.1.4.6.6.6.2 0 .4-.1.5-.1.2 0 .4 0 .6-.1.2-.1.1-.3.3-.5.1-.1.3 0 .4-.1.2-.1.3-.3.4-.5v-.2c0-.1.1-.2.1-.3 0-.1-.1-.1-.1-.2v-.3c0-.2 0-.4-.1-.5-.4-.7-1.2-.9-2-.8-.2 0-.3.1-.4.2-.2.1-.1.2-.3.2-.1 0-.2.1-.2.2v.3m-7.7 0v.2c-.1.1-.1.1-.2.1-.1.1-.1.3-.1.4-.2.1 0 .2 0 .3v.2c0 .1 0 .3.1.4.1.2.3.4.4.5.2.1.4.6.6.6.2 0 .4-.1.5-.1.2 0 .4 0 .6-.1.2-.1.1-.3.3-.5.1-.1.3 0 .4-.1.2-.1.3-.3.4-.5v-.2c0-.1.1-.2.1-.3 0-.1-.1-.1-.1-.2v-.3c0-.2 0-.4-.1-.5-.4-.7-1.2-.9-2-.8-.2 0-.3.1-.4.2-.2.1-.1.2-.3.2-.1 0-.2.1-.2.2v.3m-7.6 0v.2c-.1.1-.1.1-.2.1-.1.1-.1.3-.1.4-.2.1 0 .2 0 .3v.2c0 .1 0 .3.1.4.1.2.3.4.4.5.2.1.4.6.6.6.2 0 .4-.1.5-.1.2 0 .4 0 .6-.1.2-.1.1-.3.3-.5.1-.1.3 0 .4-.1.2-.1.3-.3.4-.5v-.2c0-.1.1-.2.1-.3 0-.1-.1-.1-.1-.2v-.3c0-.2 0-.4-.1-.5-.4-.7-1.2-.9-2-.8-.2 0-.3.1-.4.2-.2.1-.1.2-.3.2-.1 0-.2.1-.2.2v.3m-7.7 0v.2c-.1.1-.1.1-.2.1-.1.1-.1.3-.1.4-.2.1 0 .2 0 .3v.2c0 .1 0 .3.1.4.1.2.3.4.4.5.2.1.4.6.6.6.2 0 .4-.1.5-.1.2 0 .4 0 .6-.1.2-.1.1-.3.3-.5.1-.1.3 0 .4-.1.2-.1.3-.3.4-.5v-.2c0-.1.1-.2.1-.3 0-.1-.1-.1-.1-.2v-.3c0-.2 0-.4-.1-.5-.4-.7-1.2-.9-2-.8-.2 0-.3.1-.4.2-.2.1-.1.2-.3.2-.1 0-.2.1-.2.2v.3m-7.6 0v.2c-.1 0-.2 0-.2.1-.1.1-.1.3-.1.4-.2.1 0 .2 0 .3v.2c0 .1 0 .3.1.4.1.2.3.4.4.5.2.1.4.6.6.6.2 0 .4-.1.5-.1.2 0 .4 0 .6-.1.2-.1.1-.3.3-.5.1-.1.3 0 .4-.1.2-.1.3-.3.4-.5v-.2c0-.1.1-.2.1-.3 0-.1-.1-.1-.1-.2v-.3c0-.2 0-.4-.1-.5-.4-.7-1.2-.9-2-.8-.2 0-.3.1-.4.2-.2.1-.1.2-.3.2-.1 0-.2.1-.2.2v.3c-.1 0-.1 0 0 0M.5-41v.2c-.1.1-.1.1-.2.1-.1.1-.1.3-.1.4-.2.1 0 .2 0 .3v.2c0 .1 0 .3.1.4.1.2.3.4.4.5.2.1.4.6.6.6.2 0 .4-.1.5-.1.2 0 .4 0 .6-.1.2-.1.1-.3.3-.5h.4c.2-.1.3-.3.4-.5v-.2c0-.1.1-.2.1-.3 0-.1-.1-.1-.1-.2v-.3c0-.2 0-.4-.1-.5-.4-.7-1.2-.9-2-.8-.2 0-.3.1-.4.2-.2.1-.1.2-.3.2-.1 0-.2.1-.2.2v.2m68.9 7.6v.2c-.1.1-.1.1-.2.1-.1.1-.1.3-.1.4-.2.1 0 .2 0 .3v.2c0 .1 0 .3.1.4.1.2.3.4.4.5.2.1.4.6.6.6.2 0 .4-.1.5-.1.2 0 .4 0 .6-.1.2-.1.1-.3.3-.5.1-.1.3 0 .4-.1.2-.1.3-.3.4-.5v-.2c0-.1.1-.2.1-.3 0-.1-.1-.1-.1-.2v-.3c0-.2 0-.4-.1-.5-.4-.7-1.2-.9-2-.8-.2 0-.3.1-.4.2-.2.1-.1.2-.3.2-.1 0-.2.1-.2.2v.3m-7.6 0v.2c-.1.1-.1.1-.2.1-.1.1-.1.3-.1.4-.2.1 0 .2 0 .3v.2c0 .1 0 .3.1.4.1.2.3.4.4.5.2.1.4.6.6.6.2 0 .4-.1.5-.1.2 0 .4 0 .6-.1.2-.1.1-.3.3-.5.1-.1.3 0 .4-.1.2-.1.3-.3.4-.5v-.2c0-.1.1-.2.1-.3 0-.1-.1-.1-.1-.2v-.3c0-.2 0-.4-.1-.5-.4-.7-1.2-.9-2-.8-.2 0-.3.1-.4.2-.2.1-.1.2-.3.2-.1 0-.2.1-.2.2v.3m-7.7 0v.2c-.1.1-.1.1-.2.1-.1.1-.1.3-.1.4-.2.1 0 .2 0 .3v.2c0 .1 0 .3.1.4.1.2.3.4.4.5.2.1.4.6.6.6.2 0 .4-.1.5-.1.2 0 .4 0 .6-.1.2-.1.1-.3.3-.5.1-.1.3 0 .4-.1.2-.1.3-.3.4-.5v-.2c0-.1.1-.2.1-.3 0-.1-.1-.1-.1-.2v-.3c0-.2 0-.4-.1-.5-.4-.7-1.2-.9-2-.8-.2 0-.3.1-.4.2-.2.1-.1.2-.3.2-.1 0-.2.1-.2.2v.3m-7.6 0v.2c-.1.1-.1.1-.2.1-.1.1-.1.3-.1.4-.2.1 0 .2 0 .3v.2c0 .1 0 .3.1.4.1.2.3.4.4.5.2.1.4.6.6.6.2 0 .4-.1.5-.1.2 0 .4 0 .6-.1.2-.1.1-.3.3-.5.1-.1.3 0 .4-.1.2-.1.3-.3.4-.5v-.2c0-.1.1-.2.1-.3 0-.1-.1-.1-.1-.2v-.3c0-.2 0-.4-.1-.5-.4-.7-1.2-.9-2-.8-.2 0-.3.1-.4.2-.2.1-.1.2-.3.2-.1 0-.2.1-.2.2v.3m-7.7 0v.2c-.1.1-.1.1-.2.1-.1.1-.1.3-.1.4-.2.1 0 .2 0 .3v.2c0 .1 0 .3.1.4.1.2.3.4.4.5.2.1.4.6.6.6.2 0 .4-.1.5-.1.2 0 .4 0 .6-.1.2-.1.1-.3.3-.5.1-.1.3 0 .4-.1.2-.1.3-.3.4-.5v-.2c0-.1.1-.2.1-.3 0-.1-.1-.1-.1-.2v-.3c0-.2 0-.4-.1-.5-.4-.7-1.2-.9-2-.8-.2 0-.3.1-.4.2-.2.1-.1.2-.3.2-.1 0-.2.1-.2.2v.3m-7.7 0v.2c-.1.1-.1.1-.2.1-.1.1-.1.3-.1.4-.2.1 0 .2 0 .3v.2c0 .1 0 .3.1.4.1.2.3.4.4.5.2.1.4.6.6.6.2 0 .4-.1.5-.1.2 0 .4 0 .6-.1.2-.1.1-.3.3-.5.1-.1.3 0 .4-.1.2-.1.3-.3.4-.5v-.2c0-.1.1-.2.1-.3 0-.1-.1-.1-.1-.2v-.3c0-.2 0-.4-.1-.5-.4-.7-1.2-.9-2-.8-.2 0-.3.1-.4.2-.2.1-.1.2-.3.2-.1 0-.2.1-.2.2v.3m-7.6 0v.2c-.1.1-.1.1-.2.1-.1.1-.1.3-.1.4-.2.1 0 .2 0 .3v.2c0 .1 0 .3.1.4.1.2.3.4.4.5.2.1.4.6.6.6.2 0 .4-.1.5-.1.2 0 .4 0 .6-.1.2-.1.1-.3.3-.5.1-.1.3 0 .4-.1.2-.1.3-.3.4-.5v-.2c0-.1.1-.2.1-.3 0-.1-.1-.1-.1-.2v-.3c0-.2 0-.4-.1-.5-.4-.7-1.2-.9-2-.8-.2 0-.3.1-.4.2-.2.1-.1.2-.3.2-.1 0-.2.1-.2.2v.3m-7.7 0v.2c-.1.1-.1.1-.2.1-.1.1-.1.3-.1.4-.2.1 0 .2 0 .3v.2c0 .1 0 .3.1.4.1.2.3.4.4.5.2.1.4.6.6.6.2 0 .4-.1.5-.1.2 0 .4 0 .6-.1.2-.1.1-.3.3-.5.1-.1.3 0 .4-.1.2-.1.3-.3.4-.5v-.2c0-.1.1-.2.1-.3 0-.1-.1-.1-.1-.2v-.3c0-.2 0-.4-.1-.5-.4-.7-1.2-.9-2-.8-.2 0-.3.1-.4.2-.2.1-.1.2-.3.2-.1 0-.2.1-.2.2v.3m-7.6 0v.2c-.1.1-.2.1-.2.1-.1.1-.1.3-.1.4-.2.1 0 .2 0 .3v.2c0 .1 0 .3.1.4.1.2.3.4.4.5.2.1.4.6.6.6.2 0 .4-.1.5-.1.2 0 .4 0 .6-.1.2-.1.1-.3.3-.5.1-.1.3 0 .4-.1.2-.1.3-.3.4-.5v-.2c0-.1.1-.2.1-.3 0-.1-.1-.1-.1-.2v-.3c0-.2 0-.4-.1-.5-.4-.7-1.2-.9-2-.8-.2 0-.3.1-.4.2-.2.1-.1.2-.3.2-.1 0-.2.1-.2.2v.3c-.1 0-.1 0 0 0m-7.7 0v.2c-.1.1-.1.1-.2.1-.1.1-.1.3-.1.4-.2.1 0 .2 0 .3v.2c0 .1 0 .3.1.4.1.2.3.4.4.5.2.1.4.6.6.6.2 0 .4-.1.5-.1.2 0 .4 0 .6-.1.2-.1.1-.3.3-.5.1-.1.3 0 .4-.1.2-.1.3-.3.4-.5v-.2c0-.1.1-.2.1-.3 0-.1-.1-.1-.1-.2v-.3c0-.2 0-.4-.1-.5-.4-.7-1.2-.9-2-.8-.2 0-.3.1-.4.2-.2.1-.1.2-.3.2-.1 0-.2.1-.2.2v.3m68.9 7.7v.2c-.1.1-.1.1-.2.1-.1.1-.1.3-.1.4-.2.1 0 .2 0 .3v.2c0 .1 0 .3.1.4.1.2.3.4.4.5.2.1.4.6.6.6.2 0 .4-.1.5-.1.2 0 .4 0 .6-.1.2-.1.1-.3.3-.5.1-.1.3 0 .4-.1.2-.1.3-.3.4-.5v-.2c0-.1.1-.2.1-.3 0-.1-.1-.1-.1-.2v-.3c0-.2 0-.4-.1-.5-.4-.7-1.2-.9-2-.8-.2 0-.3.1-.4.2-.2.1-.1.2-.3.2-.1 0-.2.1-.2.2v.3m-7.6 0v.2c-.1.1-.1.1-.2.1-.1.1-.1.3-.1.4-.2.1 0 .2 0 .3v.2c0 .1 0 .3.1.4.1.2.3.4.4.5.2.1.4.6.6.6.2 0 .4-.1.5-.1.2 0 .4 0 .6-.1.2-.1.1-.3.3-.5.1-.1.3 0 .4-.1.2-.1.3-.3.4-.5v-.2c0-.1.1-.2.1-.3 0-.1-.1-.1-.1-.2v-.3c0-.2 0-.4-.1-.5-.4-.7-1.2-.9-2-.8-.2 0-.3.1-.4.2-.2.1-.1.2-.3.2-.1 0-.2.1-.2.2v.3m-7.7 0v.2c-.1.1-.1.1-.2.1-.1.1-.1.3-.1.4-.2.1 0 .2 0 .3v.2c0 .1 0 .3.1.4.1.2.3.4.4.5.2.1.4.6.6.6.2 0 .4-.1.5-.1.2 0 .4 0 .6-.1.2-.1.1-.3.3-.5.1-.1.3 0 .4-.1.2-.1.3-.3.4-.5v-.2c0-.1.1-.2.1-.3 0-.1-.1-.1-.1-.2v-.3c0-.2 0-.4-.1-.5-.4-.7-1.2-.9-2-.8-.2 0-.3.1-.4.2-.2.1-.1.2-.3.2-.1 0-.2.1-.2.2v.3m-7.6 0v.2c-.1.1-.1.1-.2.1-.1.1-.1.3-.1.4-.2.1 0 .2 0 .3v.2c0 .1 0 .3.1.4.1.2.3.4.4.5.2.1.4.6.6.6.2 0 .4-.1.5-.1.2 0 .4 0 .6-.1.2-.1.1-.3.3-.5.1-.1.3 0 .4-.1.2-.1.3-.3.4-.5v-.2c0-.1.1-.2.1-.3 0-.1-.1-.1-.1-.2v-.3c0-.2 0-.4-.1-.5-.4-.7-1.2-.9-2-.8-.2 0-.3.1-.4.2-.2.1-.1.2-.3.2-.1 0-.2.1-.2.2v.3m-7.7 0v.2c-.1.1-.1.1-.2.1-.1.1-.1.3-.1.4-.2.1 0 .2 0 .3v.2c0 .1 0 .3.1.4.1.2.3.4.4.5.2.1.4.6.6.6.2 0 .4-.1.5-.1.2 0 .4 0 .6-.1.2-.1.1-.3.3-.5.1-.1.3 0 .4-.1.2-.1.3-.3.4-.5v-.2c0-.1.1-.2.1-.3 0-.1-.1-.1-.1-.2v-.3c0-.2 0-.4-.1-.5-.4-.7-1.2-.9-2-.8-.2 0-.3.1-.4.2-.2.1-.1.2-.3.2-.1 0-.2.1-.2.2v.3m-7.7 0v.2c-.1.1-.1.1-.2.1-.1.1-.1.3-.1.4-.2.1 0 .2 0 .3v.2c0 .1 0 .3.1.4.1.2.3.4.4.5.2.1.4.6.6.6.2 0 .4-.1.5-.1.2 0 .4 0 .6-.1.2-.1.1-.3.3-.5.1-.1.3 0 .4-.1.2-.1.3-.3.4-.5v-.2c0-.1.1-.2.1-.3 0-.1-.1-.1-.1-.2v-.3c0-.2 0-.4-.1-.5-.4-.7-1.2-.9-2-.8-.2 0-.3.1-.4.2-.2.1-.1.2-.3.2-.1 0-.2.1-.2.2v.3m-7.6 0v.2c-.1.1-.1.1-.2.1-.1.1-.1.3-.1.4-.2.1 0 .2 0 .3v.2c0 .1 0 .3.1.4.1.2.3.4.4.5.2.1.4.6.6.6.2 0 .4-.1.5-.1.2 0 .4 0 .6-.1.2-.1.1-.3.3-.5.1-.1.3 0 .4-.1.2-.1.3-.3.4-.5v-.2c0-.1.1-.2.1-.3 0-.1-.1-.1-.1-.2v-.3c0-.2 0-.4-.1-.5-.4-.7-1.2-.9-2-.8-.2 0-.3.1-.4.2-.2.1-.1.2-.3.2-.1 0-.2.1-.2.2v.3m-7.7 0v.2c-.1.1-.1.1-.2.1-.1.1-.1.3-.1.4-.2.1 0 .2 0 .3v.2c0 .1 0 .3.1.4.1.2.3.4.4.5.2.1.4.6.6.6.2 0 .4-.1.5-.1.2 0 .4 0 .6-.1.2-.1.1-.3.3-.5.1-.1.3 0 .4-.1.2-.1.3-.3.4-.5v-.2c0-.1.1-.2.1-.3 0-.1-.1-.1-.1-.2v-.3c0-.2 0-.4-.1-.5-.4-.7-1.2-.9-2-.8-.2 0-.3.1-.4.2-.2.1-.1.2-.3.2-.1 0-.2.1-.2.2v.3m-7.6 0v.2c-.1.1-.2 0-.2.1-.1.1-.1.3-.1.4-.2.1 0 .2 0 .3v.2c0 .1 0 .3.1.4 0 .1.2.3.3.5.2.1.4.6.6.6.2 0 .4-.1.5-.1.2 0 .4 0 .6-.1.2-.1.1-.3.3-.5.1-.1.3 0 .4-.1.2-.1.3-.3.4-.5v-.2c0-.1.1-.2.1-.3 0-.1-.1-.1-.1-.2v-.3c0-.2 0-.4-.1-.5-.4-.7-1.2-.9-2-.8-.2 0-.3.1-.4.2-.2.1-.1.2-.3.2-.1 0-.2.1-.2.2.1.2.1.2.1.3-.1 0-.1 0 0 0m-7.7 0v.2c-.1.1-.1.1-.2.1-.1.1-.1.3-.1.4-.2.1 0 .2 0 .3v.2c0 .1 0 .3.1.4.1.2.3.4.4.5.2.1.3.5.6.6.2 0 .4-.1.5-.1.2 0 .4 0 .6-.1.2-.1.1-.3.3-.5.1-.1.3 0 .4-.1.2-.1.3-.3.4-.5v-.2c0-.1.1-.2.1-.3 0-.1-.1-.1-.1-.2v-.3c0-.2 0-.4-.1-.5-.4-.7-1.2-.9-2-.8-.2 0-.3.1-.4.2-.2.1-.1.2-.3.2-.1 0-.2.1-.2.2v.3m68.9 7.6v.2c-.1.1-.1.1-.2.1-.1.1-.1.3-.1.4-.2.1 0 .2 0 .3v.2c0 .1 0 .3.1.4.1.2.3.4.4.5.2.1.4.6.6.6.2 0 .4-.1.5-.1.2 0 .4 0 .6-.1.2-.1.1-.3.3-.5.1-.1.3 0 .4-.1.2-.1.3-.3.4-.5v-.2c0-.1.1-.2.1-.3 0-.1-.1-.1-.1-.2v-.3c0-.2 0-.4-.1-.5-.4-.7-1.2-.9-2-.8-.2 0-.3.1-.4.2-.2.1-.1.2-.3.2-.1 0-.2.1-.2.2v.3c0 .1 0 0 0 0m-7.6 0v.2c-.1.1-.1.1-.2.1-.1.1-.1.3-.1.4-.2.1 0 .2 0 .3v.2c0 .1 0 .3.1.4.1.2.3.4.4.5.2.1.4.6.6.6.2 0 .4-.1.5-.1.2 0 .4 0 .6-.1.2-.1.1-.3.3-.5.1-.1.3 0 .4-.1.2-.1.3-.3.4-.5v-.2c0-.1.1-.2.1-.3 0-.1-.1-.1-.1-.2v-.3c0-.2 0-.4-.1-.5-.4-.7-1.2-.9-2-.8-.2 0-.3.1-.4.2-.2.1-.1.2-.3.2-.1 0-.2.1-.2.2v.3c0 .1 0 0 0 0m-7.7 0v.2c-.1.1-.1.1-.2.1-.1.1-.1.3-.1.4-.2.1 0 .2 0 .3v.2c0 .1 0 .3.1.4.1.2.3.4.4.5.2.1.4.6.6.6.2 0 .4-.1.5-.1.2 0 .4 0 .6-.1.2-.1.1-.3.3-.5.1-.1.3 0 .4-.1.2-.1.3-.3.4-.5v-.2c0-.1.1-.2.1-.3 0-.1-.1-.1-.1-.2v-.3c0-.2 0-.4-.1-.5-.4-.7-1.2-.9-2-.8-.2 0-.3.1-.4.2-.2.1-.1.2-.3.2-.1 0-.2.1-.2.2v.3c0 .1 0 0 0 0m-7.6 0v.2c-.1.1-.1.1-.2.1-.1.1-.1.3-.1.4-.2.1 0 .2 0 .3v.2c0 .1 0 .3.1.4.1.2.3.4.4.5.2.1.4.6.6.6.2 0 .4-.1.5-.1.2 0 .4 0 .6-.1.2-.1.1-.3.3-.5.1-.1.3 0 .4-.1.2-.1.3-.3.4-.5v-.2c0-.1.1-.2.1-.3 0-.1-.1-.1-.1-.2v-.3c0-.2 0-.4-.1-.5-.4-.7-1.2-.9-2-.8-.2 0-.3.1-.4.2-.2.1-.1.2-.3.2-.1 0-.2.1-.2.2v.3c0 .1 0 0 0 0m-7.7 0v.2c-.1.1-.1.1-.2.1-.1.1-.1.3-.1.4-.2.1 0 .2 0 .3v.2c0 .1 0 .3.1.4.1.2.3.4.4.5.2.1.4.6.6.6.2 0 .4-.1.5-.1.2 0 .4 0 .6-.1.2-.1.1-.3.3-.5.1-.1.3 0 .4-.1.2-.1.3-.3.4-.5v-.2c0-.1.1-.2.1-.3 0-.1-.1-.1-.1-.2v-.3c0-.2 0-.4-.1-.5-.4-.7-1.2-.9-2-.8-.2 0-.3.1-.4.2-.2.1-.1.2-.3.2-.1 0-.2.1-.2.2v.3c0 .1 0 0 0 0m-7.7 0v.2c-.1.1-.1.1-.2.1-.1.1-.1.3-.1.4-.2.1 0 .2 0 .3v.2c0 .1 0 .3.1.4.1.2.3.4.4.5.2.1.4.6.6.6.2 0 .4-.1.5-.1.2 0 .4 0 .6-.1.2-.1.1-.3.3-.5.1-.1.3 0 .4-.1.2-.1.3-.3.4-.5v-.2c0-.1.1-.2.1-.3 0-.1-.1-.1-.1-.2v-.3c0-.2 0-.4-.1-.5-.4-.7-1.2-.9-2-.8-.2 0-.3.1-.4.2-.2.1-.1.2-.3.2-.1 0-.2.1-.2.2v.3c0 .1 0 0 0 0m-7.6 0v.2c-.1.1-.1.1-.2.1-.1.1-.1.3-.1.4-.2.1 0 .2 0 .3v.2c0 .1 0 .3.1.4.1.2.3.4.4.5.2.1.4.6.6.6.2 0 .4-.1.5-.1.2 0 .4 0 .6-.1.2-.1.1-.3.3-.5.1-.1.3 0 .4-.1.2-.1.3-.3.4-.5v-.2c0-.1.1-.2.1-.3 0-.1-.1-.1-.1-.2v-.3c0-.2 0-.4-.1-.5-.4-.7-1.2-.9-2-.8-.2 0-.3.1-.4.2-.2.1-.1.2-.3.2-.1 0-.2.1-.2.2v.3c0 .1 0 0 0 0m-7.7 0v.2c-.1.1-.1.1-.2.1-.1.1-.1.3-.1.4-.2.1 0 .2 0 .3v.2c0 .1 0 .3.1.4.1.2.3.4.4.5.2.1.4.6.6.6.2 0 .4-.1.5-.1.2 0 .4 0 .6-.1.2-.1.1-.3.3-.5.1-.1.3 0 .4-.1.2-.1.3-.3.4-.5v-.2c0-.1.1-.2.1-.3 0-.1-.1-.1-.1-.2v-.3c0-.2 0-.4-.1-.5-.4-.7-1.2-.9-2-.8-.2 0-.3.1-.4.2-.2.1-.1.2-.3.2-.1 0-.2.1-.2.2v.3c0 .1 0 0 0 0m-7.6 0v.2c-.1.1-.2.1-.2.1-.1.1-.1.3-.1.4-.2.1 0 .2 0 .3v.2c0 .1 0 .3.1.4 0 .2.2.4.3.5.2.1.4.6.6.6.2 0 .4-.1.5-.1.2 0 .4 0 .6-.1.2-.1.1-.3.3-.5.1-.1.3 0 .4-.1.2-.1.3-.3.4-.5v-.2c0-.1.1-.2.1-.3 0-.1-.1-.1-.1-.2v-.3c0-.2 0-.4-.1-.5-.4-.7-1.2-.9-2-.8-.2 0-.3.1-.4.2-.2.1-.1.2-.3.2-.1 0-.2.1-.2.2.1.3.1.2.1.3-.1.1-.1 0 0 0m-7.7 0v.2c-.1.1-.1.1-.2.1-.1.1-.1.3-.1.4-.2.1 0 .2 0 .3v.2c0 .1 0 .3.1.4.1.2.3.4.4.5.2.1.4.6.6.6.2 0 .4-.1.5-.1.2 0 .4 0 .6-.1.2-.1.1-.3.3-.5.1 0 .3.1.4.1.2-.1.3-.3.4-.5v-.2c0-.1.1-.2.1-.3 0-.1-.1-.1-.1-.2v-.3c0-.2 0-.4-.1-.5-.4-.7-1.2-.9-2-.8-.2 0-.3.1-.4.2-.2.1-.1.2-.3.2-.1 0-.2.1-.2.2v.1c0 .1 0 0 0 0m68.9 7.7v.2c-.1.1-.1.1-.2.1-.1.1-.1.3-.1.4-.2.1 0 .2 0 .3v.2c0 .1 0 .3.1.4.1.2.3.4.4.5.2.1.4.6.6.6.2 0 .4-.1.5-.1.2 0 .4 0 .6-.1.2-.1.1-.3.3-.5.1-.1.3 0 .4-.1.2-.1.3-.3.4-.5v-.2c0-.1.1-.2.1-.3 0-.1-.1-.1-.1-.2v-.3c0-.2 0-.4-.1-.5-.4-.7-1.2-.9-2-.8-.2 0-.3.1-.4.2-.2.1-.1.2-.3.2-.1 0-.2.1-.2.2v.3m-7.6 0v.2c-.1.1-.1.1-.2.1-.1.1-.1.3-.1.4-.2.1 0 .2 0 .3v.2c0 .1 0 .3.1.4.1.2.3.4.4.5.2.1.4.6.6.6.2 0 .4-.1.5-.1.2 0 .4 0 .6-.1.2-.1.1-.3.3-.4.1-.1.3 0 .4-.1.2-.1.3-.3.4-.5v-.2c0-.1.1-.2.1-.3 0-.1-.1-.1-.1-.2v-.3c0-.2 0-.4-.1-.5-.4-.7-1.2-.9-2-.8-.2 0-.3.1-.4.2-.2.1-.1.2-.3.2-.1 0-.2.1-.2.2v.2m-7.7 0v.2c-.1.1-.1.1-.2.1-.1.1-.1.3-.1.4-.2.1 0 .2 0 .3v.2c0 .1 0 .3.1.4.1.2.3.4.4.5.2.1.4.6.6.6.2 0 .4-.1.5-.1.2 0 .4 0 .6-.1.2-.1.1-.3.3-.5.1-.1.3 0 .4-.1.2-.1.3-.3.4-.5v-.2c0-.1.1-.2.1-.3 0-.1-.1-.1-.1-.2v-.3c0-.2 0-.4-.1-.5-.4-.7-1.2-.9-2-.8-.2 0-.3.1-.4.2-.2.1-.1.2-.3.2-.1 0-.2.1-.2.2v.3m-7.6 0v.2c-.1.1-.1.1-.2.1-.1.1-.1.3-.1.4-.2.1 0 .2 0 .3v.2c0 .1 0 .3.1.4.1.2.3.4.4.5.2.1.4.6.6.6.2 0 .4-.1.5-.1.2 0 .4 0 .6-.1.2-.1.1-.3.3-.5.1-.1.3 0 .4-.1.2-.1.3-.3.4-.5v-.2c0-.1.1-.2.1-.3 0-.1-.1-.1-.1-.2v-.3c0-.2 0-.4-.1-.5-.4-.7-1.2-.9-2-.8-.2 0-.3.1-.4.2-.2.1-.1.2-.3.2-.1 0-.2.1-.2.2v.3m-7.7 0v.2c-.1.1-.1.1-.2.1-.1.1-.1.3-.1.4-.2.1 0 .2 0 .3v.2c0 .1 0 .3.1.4.1.2.3.4.4.5.2.1.4.6.6.6.2 0 .4-.1.5-.1.2 0 .4 0 .6-.1.2-.1.1-.3.3-.4.1-.1.3 0 .4-.1.2-.1.3-.3.4-.5v-.2c0-.1.1-.2.1-.3 0-.1-.1-.1-.1-.2v-.3c0-.2 0-.4-.1-.5-.4-.7-1.2-.9-2-.8-.2 0-.3.1-.4.2-.2.1-.1.2-.3.2-.1 0-.2.1-.2.2v.2m-7.7 0v.2c-.1.1-.1.1-.2.1-.1.1-.1.3-.1.4-.2.1 0 .2 0 .3v.2c0 .1 0 .3.1.4.1.2.3.4.4.5.2.1.4.6.6.6.2 0 .4-.1.5-.1.2 0 .4 0 .6-.1.2-.1.1-.3.3-.5.1-.1.3 0 .4-.1.2-.1.3-.3.4-.5v-.2c0-.1.1-.2.1-.3 0-.1-.1-.1-.1-.2v-.3c0-.2 0-.4-.1-.5-.4-.7-1.2-.9-2-.8-.2 0-.3.1-.4.2-.2.1-.1.2-.3.2-.1 0-.2.1-.2.2v.3m-7.6 0v.2c-.1.1-.1.1-.2.1-.1.1-.1.3-.1.4-.2.1 0 .2 0 .3v.2c0 .1 0 .3.1.4.1.2.3.4.4.5.2.1.4.6.6.6.2 0 .4-.1.5-.1.2 0 .4 0 .6-.1.2-.1.1-.3.3-.5.1-.1.3 0 .4-.1.2-.1.3-.3.4-.5v-.2c0-.1.1-.2.1-.3 0-.1-.1-.1-.1-.2v-.3c0-.2 0-.4-.1-.5-.4-.7-1.2-.9-2-.8-.2 0-.3.1-.4.2-.2.1-.1.2-.3.2-.1 0-.2.1-.2.2v.3m-7.7 0v.2c-.1.1-.1.1-.2.1-.1.1-.1.3-.1.4-.2.1 0 .2 0 .3v.2c0 .1 0 .3.1.4.1.2.3.4.4.5.2.1.4.6.6.6.2 0 .4-.1.5-.1.2 0 .4 0 .6-.1.2-.1.1-.3.3-.4.1-.1.3 0 .4-.1.2-.1.3-.3.4-.5v-.2c0-.1.1-.2.1-.3 0-.1-.1-.1-.1-.2v-.3c0-.2 0-.4-.1-.5-.4-.7-1.2-.9-2-.8-.2 0-.3.1-.4.2-.2.1-.1.2-.3.2-.1 0-.2.1-.2.2v.2m-7.6 0v.2c-.1.1-.2 0-.2.1-.1.1-.1.3-.1.3-.2.1 0 .2 0 .3v.2c0 .1 0 .3.1.4 0 .2.2.4.3.6.2.1.4.6.6.6.2 0 .4-.1.5-.1.2 0 .4 0 .6-.1.2-.1.1-.3.3-.5.1-.1.3 0 .4-.1.2-.1.3-.3.4-.5v-.2c0-.1.1-.2.1-.3 0-.1-.1-.1-.1-.2v-.3c0-.2 0-.4-.1-.5-.4-.7-1.2-.9-2-.8-.2 0-.3.1-.4.2-.2.1-.1.2-.3.2-.1 0-.2.1-.2.2.1.2.1.2.1.3-.1 0-.1 0 0 0m-7.7 0v.2c-.1.1-.1.1-.2.1 0 .1-.1.3-.1.3-.2.1 0 .2 0 .3v.2c0 .1 0 .3.1.4.1.2.3.4.4.5.2.2.3.6.6.7.2 0 .4-.1.5-.1.2 0 .4 0 .6-.1.2-.1.1-.3.3-.4.1-.1.3 0 .4-.1.2-.1.3-.3.4-.5v-.2c0-.1.1-.2.1-.3 0-.1-.1-.1-.1-.2v-.3c0-.2 0-.4-.1-.5-.4-.7-1.2-.9-2-.8-.2 0-.3.1-.4.2-.2.1-.1.2-.3.2-.1 0-.2.1-.2.2v.2m68.9 7.6v.2c-.1.1-.1.1-.2.1-.1.1-.1.3-.1.4-.2.1 0 .2 0 .3v.2c0 .1 0 .3.1.4.1.2.3.4.4.5.2.2.4.6.6.7.2 0 .4-.1.5-.1.2 0 .4 0 .6-.1.2-.1.1-.3.3-.5.1-.1.3 0 .4-.1.2-.1.3-.3.4-.5v-.2c0-.1.1-.2.1-.3 0-.1-.1-.1-.1-.2v-.3c0-.2 0-.4-.1-.5-.4-.7-1.2-.9-2-.8-.2 0-.3.1-.4.2-.2.1-.1.2-.3.2-.1 0-.2.1-.2.2v.2c0 .1 0 0 0 0m-7.6 0v.2c-.1.1-.1.1-.2.1-.1.1-.1.3-.1.4-.2.1 0 .2 0 .3v.2c0 .1 0 .3.1.4 0 .2.2.4.4.5.2.1.4.6.6.6.2 0 .4-.1.5-.1.2 0 .4 0 .6-.1.2-.1.1-.3.3-.5.1-.1.3 0 .4-.1.2-.1.3-.3.4-.5v-.2c0-.1.1-.2.1-.3 0-.1-.1-.1-.1-.2v-.3c0-.2 0-.4-.1-.5-.4-.7-1.2-.9-2-.8-.2 0-.3.1-.4.2-.2.1-.1.2-.3.2-.1 0-.2.1-.2.2v.3c0 .1 0 0 0 0m-7.7 0v.2c-.1.1-.1.1-.2.1-.1.1-.1.3-.1.4-.2.1 0 .2 0 .3v.2c0 .1 0 .3.1.4.1.2.2.4.4.5.2.1.4.6.6.6.2 0 .4-.1.5-.1.2 0 .4 0 .6-.1.2-.1.1-.3.3-.5.1-.1.3 0 .4-.1.2.1.3-.1.4-.3v-.2c0-.1.1-.2.1-.3 0-.1-.1-.1-.1-.2v-.3c0-.2 0-.4-.1-.5-.4-.7-1.2-.9-2-.8-.2 0-.3.1-.4.2-.2.1-.1.2-.3.2-.1 0-.2.1-.2.2v.1c0 .1 0 0 0 0m-7.6 0v.2c-.1.1-.1.1-.2.1-.1.1-.1.3-.1.4-.2.1 0 .2 0 .3v.2c0 .1 0 .3.1.4.1.2.3.4.4.5.1.2.3.6.5.7.2 0 .4-.1.5-.1.2 0 .4 0 .6-.1.2-.1.1-.3.3-.5.1-.1.3 0 .4-.1.2-.1.3-.3.4-.5v-.2c0-.1.1-.2.1-.3 0-.1-.1-.1-.1-.2v-.3c0-.2 0-.4-.1-.5-.4-.7-1.2-.9-2-.8-.2 0-.3.1-.4.2-.2.1-.1.2-.3.2-.1 0-.2.1-.2.2.1.2.1.1.1.2m-7.7 0v.2c-.1.1-.1.1-.2.1-.1.1-.1.3-.1.4-.2.1 0 .2 0 .3v.2c0 .1 0 .3.1.4 0 .2.2.4.4.5.2.1.4.6.6.6.2 0 .4-.1.5-.1.2 0 .4 0 .6-.1.2-.1.1-.3.3-.5.1-.1.3 0 .4-.1.2-.1.3-.3.4-.5v-.2c0-.1.1-.2.1-.3 0-.1-.1-.1-.1-.2v-.3c0-.2 0-.4-.1-.5-.4-.7-1.2-.9-2-.8-.2 0-.3.1-.4.2-.2.1-.1.2-.3.2-.1 0-.2.1-.2.2v.3c0 .1 0 0 0 0m-7.7 0v.2c-.1.1-.1.1-.2.1-.1.1-.1.3-.1.4-.2.1 0 .2 0 .3v.2c0 .1 0 .3.1.4.1.2.2.4.4.5.2.1.4.6.6.6.2 0 .4-.1.5-.1.2 0 .4 0 .6-.1.2-.1.1-.3.3-.5.1-.1.3 0 .4-.1.2-.1.3-.3.4-.5v-.2c0-.1.1-.2.1-.3 0-.1-.1-.1-.1-.2v-.3c0-.2 0-.4-.1-.5-.4-.7-1.2-.9-2-.8-.2 0-.3.1-.4.2-.2.1-.1.2-.3.2-.1 0-.2.1-.2.2v.3c0 .1 0 0 0 0m-7.6 0v.2c-.1.1-.1.1-.2.1-.1.1-.1.3-.1.4-.2.1 0 .2 0 .3v.2c0 .1 0 .3.1.4.1.2.3.4.4.5.1.2.3.6.6.7.2 0 .4-.1.5-.1.2 0 .4 0 .6-.1.2-.1.1-.3.3-.5.1-.1.3 0 .4-.1.2-.1.3-.3.4-.5v-.2c0-.1.1-.2.1-.3 0-.1-.1-.1-.1-.2v-.3c0-.2 0-.4-.1-.5-.4-.7-1.2-.9-2-.8-.2 0-.3.1-.4.2-.2.1-.1.2-.3.2-.1 0-.2.1-.2.2v.2c0 .1 0 0 0 0m-7.7 0v.2c-.1.1-.1.1-.2.1-.1.1-.1.3-.1.4-.2.1 0 .2 0 .3v.2c0 .1 0 .3.1.4.1.2.2.4.4.5.2.1.4.6.6.6.2 0 .4-.1.5-.1.2 0 .4 0 .6-.1.2-.1.1-.3.3-.5.1-.1.3 0 .4-.1.2-.1.3-.3.4-.5v-.2c0-.1.1-.2.1-.3 0-.1-.1-.1-.1-.2v-.3c0-.2 0-.4-.1-.5-.4-.7-1.2-.9-2-.8-.2 0-.3.1-.4.2-.2.1-.1.2-.3.2-.1 0-.2.1-.2.2v.3c0 .1 0 0 0 0m-7.6 0v.2c-.1.1-.2.1-.2.1-.1.1-.1.3-.1.4-.2.1 0 .2 0 .3v.2c0 .1 0 .3.1.4 0 .2.2.4.3.5.2.2.4.6.6.7.2 0 .4-.1.5-.1.2 0 .4 0 .6-.1.2-.1.1-.3.3-.5.1-.1.3 0 .4-.1.2-.1.3-.3.4-.5v-.2c0-.1.1-.2.1-.3 0-.1-.1-.1-.1-.2v-.3c0-.2 0-.4-.1-.5-.4-.7-1.2-.9-2-.8 0 .1-.2.2-.3.2-.2.1-.1.2-.3.3-.1 0-.2.1-.2.2v.1c-.1.1-.1 0 0 0m-7.7 0v.2c-.1.1-.1.1-.2.1 0 .1-.1.3-.1.4-.2.1 0 .2 0 .3v.2c0 .1 0 .3.1.4 0 .2.2.4.4.5.2.2.3.6.6.7.2 0 .4-.1.5-.1.2 0 .4 0 .6-.1.2-.1.1-.3.3-.5.1-.1.3 0 .4-.1.2 0 .3-.2.4-.4v-.2c0-.1.1-.2.1-.3 0-.1-.1-.1-.1-.2v-.3c0-.2 0-.4-.1-.5-.4-.7-1.2-.9-2-.8-.1 0-.2.1-.4.1-.1.1-.1.2-.3.3-.1 0-.2.1-.2.2v.1c0 .1 0 0 0 0"/></pattern><path class="st3" d="M340.7 95.2l-35.1-.2c-2.3 0-4.3-1.4-5.1-3.5-.3-.9-.5-1.9-.5-3.2V65.2c0-9.6.1-16.9.1-21.8V43c.3-2.6 2.3-5.5 7-5.5h3.2l.3-.1h.8c2.8 0 5.1 1.9 5.7 4.7l.1.4v.4c0 .8.1 2 .1 3.6.8-.6 2-1.2 3.7-1.2h5.2c1.4 0 2.5.4 3.3.9 0-2.4 0-3.1.1-3.4.1-.9.3-2 1.2-3.2 1.3-1.7 2.9-2.1 3.9-2.1 1.6-.1 3-.2 4.2-.2 2.3 0 4.6.2 6.2 1.9 1.2 1.3 1.3 2.8 1.3 4.9 0 1.2.1 3.1.1 5.5.1 4.8.1 12 .1 21.5v17.8c-.2 1.7-.5 2.8-.9 3.6-.8 1.6-2.7 2.7-5 2.7z"/><path class="st4" d="M140.5 95.9c-1.8 0-3.6-.6-5.1-1.6-1.8-1.3-2.4-3-2.5-4.1v-.6l-.2-46.2c0-1.3.4-2.7 1.1-3.8 1.1-1.8 2.9-2.8 4.9-2.8 15.2 0 16.6.1 17 .1h.2c1.3.1 2.4.4 3.3.9 2 1.1 2.7 2.7 2.9 3.8.2.8.2 1.9.2 3.4 0 2.5-.3 4.4-1.1 5.9l-.2.1-.2.3c-1 1.5-2.6 2.3-4.5 2.3h-.6c-1.1 0-3.1.1-6.4.1 0 4.2-.1 10.8-.1 19.7l.1 15.1c0 1.6-.2 3.6-1.6 5.1-1.3 1.5-3.2 1.9-4.5 2-.2.1-.5.1-.8.2-.6.1-1.2.1-1.9.1z"/><path class="st5" d="M140.5 92.6c-1.1 0-2.2-.3-3.1-1-.7-.5-1.1-1.2-1.2-1.9v-.2l-.2-46.2c0-.7.2-1.4.6-2 .7-1.1 1.6-1.2 2-1.2 10.1 0 15.7 0 16.9.1.9.1 1.6.2 2.1.5.7.4 1.1.9 1.2 1.5.1.6.2 1.5.2 2.7 0 1.9-.2 3.4-.7 4.5v.1l-.1.1c-.2.3-.7.8-1.7.8h-.6c-1.1.1-3.5.1-7.4.1h-2.2c-.1 3.6-.1 11.2-.1 23l.1 15.1c0 1.4-.2 2.3-.7 2.8-.5.5-1.3.8-2.6 1-.2.1-.5.1-.8.2-.8-.1-1.2 0-1.7 0z"/><path class="st6" d="M137.2 43.3c0-.5.1-.9.4-1.3.3-.4.6-.6.9-.6 10.1 0 15.7 0 16.8.1.7.1 1.2.2 1.5.3.3.2.5.3.5.5.1.5.2 1.4.2 2.5 0 1.7-.2 3-.6 3.9-.1.2-.3.2-.6.2h-.7c-1.1.1-3.5.1-7.4.1l-3.5.1c-.1 3-.2 11.1-.2 24.3l.1 15.1c0 1-.1 1.7-.4 2-.3.3-.9.5-1.8.6-.2.1-.5.1-.8.2-.3.1-.7.1-1.2.1-.9 0-1.7-.3-2.4-.8-.4-.3-.6-.6-.7-1l-.1-46.3z"/><path class="st4" d="M170.5 95.2c-1.6 0-3.1-.1-4.6-.4h-.4c-2.9-.7-4.8-3.1-4.8-6.1v.1c-.1-3.4-.1-8.9-.2-16.3-.1-7.3-.1-14.7-.1-21.9v-7.4c.3-1.8 1-3.3 2.1-4.3 1-.9 2.3-1.5 4-1.8h.4l1.8-.1h.2c.8 0 1.8.1 3.1.2h.5l.5.2c.9.3 2.3 1.1 3.2 2.9.5 1 .7 1.9.7 2.9v5.3c1.3-3.4 2.3-6 3-7.7 1.1-3.6 5.2-3.6 7.1-3.6h4.4c1.8 0 3 .7 3.7 1.3.9.8 1.9 2.1 1.9 4.5v47.1c0 1.9-1.2 4.4-4.6 5-.8.1-1.8.2-3.1.2h-.2l-2.8-.1h-.2c-3.9-.3-5.1-2.7-5.4-3.7-.2-.7-.4-1.5-.5-3.8v-3.3c-3.9 9-4.5 9.5-6.1 10.3-.7.3-1.8.5-3.6.5z"/><path class="st4" d="M199.4 95.3c-1.7 0-3.2-.7-4.3-1.9-1.5-1.7-1.5-3.8-1.5-4.5V85c0-.9 0-1.6.2-2.2.5-2.8 2.5-4.7 5.2-5v-5c0-3.3 0-6.7-.1-10.1 0-9.5-.1-15.6-.2-18.1v-.2c0-.8 0-3.2 1.8-4.9 1.4-1.4 3.1-1.7 4.3-1.9h4.1c15 0 16.7.2 17.5.3.9.1 2.2.5 3.3 1.9.8 1 1.3 2.2 1.3 3.4v.2c-.1 2.4-.2 7.2-.2 14.4 0 10.3.1 16 .1 19.1h.5c3.8.4 5.5 3.3 5.5 5.9v.4l-.1 2c0 1.2-.1 2.6-.2 4.1-.2 2.4-1.9 5.3-6.1 5.6h-.4l-9.1.1c-16.4 0-20.2.1-21 .1-.2.2-.4.2-.6.2z"/><path class="st5" d="M199.4 91.9c-1 0-1.5-.4-1.8-.7-.4-.5-.6-1.2-.6-2.2v-.6c0-.4.1-.9 0-1.6v-1.7c0-.7 0-1.2.1-1.6.3-1.4 1.2-2.3 2.6-2.3h.2l2.5-.1c0-2.3-.1-5.1-.1-8.3 0-3.4 0-6.8-.1-10.1 0-9.5 0-15.7-.2-18.2 0-1.2.2-2 .8-2.5.5-.5 1.2-.8 2.4-.9h3.7c13.4 0 16.2.1 17 .2.3 0 .8.2 1.2.7.4.5.5 1 .5 1.3-.1 2.4-.2 7.3-.2 14.5 0 12.3.1 19.8.2 22.2v.2h.3c1.3 0 2.4 0 3 .1 2.4.3 2.6 2 2.6 2.5v.2l-.1 2c0 1.1-.1 2.5-.2 3.9 0 .7-.4 2.3-3 2.5h-.2l-9.1.1c-12.8 0-20 .1-21.3.2 0 .2-.1.2-.2.2zm13.5-39c0 1.5.1 7.7.1 18.5l.1 9.8c1.9 0 3.4 0 4.5-.1 0-1.1-.1-2.6-.1-4.5s0-3.9-.1-5.9c0-9.6-.1-16.1-.2-19.3-1.8 0-3.3 0-4.4-.1 0 .7.1 1.2.1 1.6z"/><path class="st6" d="M225.7 42.7c.1 0 .2.1.3.2.1.2.2.3.2.5-.1 2.5-.2 7.3-.2 14.6 0 12.4.1 19.8.2 22.2.1.7.2 1.1.3 1.2.2.2.6.2 1.3.2 1.3 0 2.3 0 2.9.1.9.1 1.4.5 1.4 1.2v.2l-.1 2.1c0 1.1-.1 2.4-.2 3.8-.1.8-.7 1.2-1.8 1.3l-9.1.1c-12.9 0-20 .1-21.4.2-.5.1-.9 0-1.1-.3-.2-.2-.3-.7-.3-1.3v-.4c.1-.5.1-1 0-1.8v-1.6c0-.6 0-1 .1-1.3.2-.8.6-1.2 1.3-1.2h.2l3-.1c.6 0 .8-.2.8-.7v-.2c0-2.4-.1-5.3-.1-8.7 0-3.4 0-6.8-.1-10.1 0-9.6-.1-15.7-.2-18.2 0-.8.1-1.4.4-1.6.3-.3.8-.4 1.6-.5h3.5c10.4-.1 16 0 17.1.1zm-7.3 8.3c0-.6-.3-.9-.8-.9-2.4 0-4.1 0-5.4-.1-.6 0-.8.3-.8.9.1.9.2 1.6.2 2 .1 1.4.1 7.5.1 18.5l.1 10.4c0 .2.1.3.2.5s.2.2.3.2c2.6 0 4.5 0 5.8-.1.3 0 .5-.1.7-.2.1-.2.2-.4.2-.8-.1-1.2-.1-2.8-.1-4.8s0-4-.1-6c-.1-9.9-.2-16.5-.4-19.6z"/><path class="st4" d="M244.5 95.2h-.6l-.6-.1h-.7l-2.5.1h-.4c-3.8-.3-6.4-3-6.4-6.7l-.1-23.2c0-17.6 0-21.2-.1-21.7v-.2c0-1.4.4-2.5 1.1-3.5.5-.7 1.6-1.8 3.5-2.2 1-.2 2.6-.5 6.4-.5 2.8 0 5.7.1 8.5.3 4 .3 7.5 1.8 10.5 4.4 3.1 2.7 5 6.2 5.4 10.3.1.6.2 1.9.2 4.9v2.8c0 3.8-1.1 7.4-3.3 10.7-2.2 3.3-5.3 5.8-9.1 7.4-1.4.5-3.1.9-5.3 1v.2c0 1.7 0 3-.1 3.9v5.5c0 3.8-2.6 6.6-6.4 6.6zm6.4-40.2c0 1.6 0 3.6.1 5.8.1 0 .1-.1.2-.2.3-.4.4-.9.5-1.4.1-.8.2-1.8.2-2.9 0-.1-.2-.4-.6-.9l-.4-.4z"/><path class="st5" d="M247.6 64.5c.4.1.9.1 1.5.1 2.4 0 4-.7 4.9-2.1.5-.8.9-1.7 1-2.6.2-1 .3-2.3.3-3.6-.1-.9-.5-1.8-1.3-2.9-.8-1-1.7-1.6-2.7-1.8-.7-.1-1.5-.1-2.3-.1h-1.4c-.1 2.3 0 6.7 0 13zm-3.1 27.3h-.2l-.6-.1c-.1 0-.3-.1-1-.1l-2.6.1h-.2c-2.1-.2-3.3-1.4-3.3-3.3l-.1-23.2c0-17.8 0-21.3-.1-21.9 0-.6.1-1.2.4-1.6.3-.5.8-.8 1.5-.9 1.1-.3 2.9-.4 5.6-.4 2.8 0 5.5.1 8.2.3 3.2.2 6.1 1.4 8.6 3.6s3.9 4.9 4.3 8.2c.1.8.2 2.3.2 4.5v2.8c0 3.1-.9 6.1-2.7 8.9-1.8 2.8-4.4 4.8-7.5 6.1-1.1.4-2.5.7-4.4.8-1.6.1-2.7.2-3.1.3 0 .8.1 1.9.1 3.3 0 1.7 0 2.9-.1 3.8v5.5c.1 2-1.1 3.3-3 3.3z"/><path class="st4" d="M300.4 65.7c0-5.3-.1-9.8-.1-13.3 0-2-.4-4.1-1.3-6.5-.9-2.7-2.6-5.1-5-7.2-2.6-2.3-6.1-3.5-10.3-3.5-4.7 0-8.5 1-11.3 3.1-2.7 1.9-4.6 4.2-5.7 6.6-.5 1-.9 2.2-1.3 3.5.3.3.5.7.6 1.2.3 2.2.4 4.3.6 6.5.1 1.9.5 3.7.5 5.6 0 3.4-1.1 6.2-2.7 9.2V73l.1 4.4c0 4.1.9 8.1 2.7 12.1 1.6 3.6 5.5 7.8 15.1 7.8 4.1 0 7.6-1.2 10.4-3.5 2.5-2.1 4.5-4.6 5.7-7.4 1.3-2.8 1.9-5.2 1.9-7.3.2-3.4.2-7.7.1-13.4zm-17.8 5.1c-.1 4.7-.2 6.7-.3 7.6h-.1c-.1 0-.2 0-.2-.1V64.7c0-7.6.1-9.4.1-9.9v-.1c0-.4.1-.8.3-1.2.1.4.2.9.2 1.4v3.6c.2 3.7.1 7.8 0 12.3z"/><path class="st5" d="M282.5 93.8c-6.2 0-10.2-2-12-5.8-1.6-3.5-2.4-7.1-2.4-10.7l-.1-4.4c-.2-8.8-.2-13.9-.2-15.4 0-3.5.1-4.4.2-4.9.6-2.4 1.2-4.5 2-6.2.8-1.8 2.3-3.6 4.5-5.2s5.4-2.4 9.3-2.4c3.4 0 6.1.9 8.1 2.7 1.9 1.7 3.3 3.6 4 5.8.7 2 1.1 3.9 1.1 5.5 0 3.4.1 7.8.1 13.3v13.3c0 1.6-.5 3.6-1.6 5.9-1.1 2.3-2.7 4.4-4.8 6.1-2.2 1.5-5 2.4-8.2 2.4zm-.5-12.1h.4c.8 0 1.5-.3 2.3-.8.7-.5 1-1.1 1.1-1.7.2-1.2.3-4 .3-8.4.1-4.5.1-8.6.1-12.3v-3.9c-.1-.9-.2-1.8-.5-2.4-.2-.6-.5-1.1-.9-1.7-.7-.8-1.4-1.1-2.2-1.1-.5 0-1 .1-1.4.4-.4.3-.8.6-1 1.1-.6 1.1-1 2.3-1.1 3.5-.1.3-.1 2.1-.1 10.3v13.2c0 1.2.2 2.1.7 2.6.4.5 1.3.9 2.4 1.2h-.1c-.1 0-.1 0 0 0z"/><path class="st6" d="M269.2 52.7c.6-2.4 1.2-4.3 1.9-6 .7-1.6 2.1-3.2 4.1-4.6 2-1.5 4.9-2.2 8.5-2.2 3.1 0 5.5.8 7.2 2.3 1.8 1.6 3 3.3 3.6 5.2.7 1.9 1 3.6 1 5 0 3.4.1 7.8.1 13.3V79c0 1.4-.5 3.2-1.5 5.4-1 2.1-2.5 4-4.4 5.7-2 1.6-4.5 2.5-7.4 2.5-5.7 0-9.3-1.7-10.8-5.1-1.5-3.4-2.3-6.8-2.3-10.2l-.1-4.4c-.2-8.7-.2-13.9-.2-15.4.1-2.6.2-4.2.3-4.8zm18.2 1.8c-.1-1-.3-1.9-.5-2.7-.2-.8-.6-1.5-1.2-2.1-.9-1.1-2-1.6-3.2-1.6-.8 0-1.5.2-2.1.6-.6.4-1.1.9-1.5 1.6-.7 1.3-1.2 2.6-1.3 4-.1.7-.2 4.2-.2 10.5V78c0 1.5.3 2.7 1 3.4.6.8 1.7 1.3 3.2 1.6.2.1.4.1.8.1 1.1 0 2.1-.4 3.1-1.1 1-.7 1.5-1.6 1.6-2.6.2-1.2.3-4 .3-8.5.1-4.5.1-8.6.1-12.3-.1-2.6-.1-4-.1-4.1z"/><path class="st5" d="M340.7 91.8l-35.1-.2c-.9 0-1.6-.5-1.9-1.3-.2-.5-.3-1.1-.3-2V65.2c0-9.6.1-16.9.1-21.7v-.2c.1-.8.6-2.6 3.7-2.6h2.3c.8 0 1.2-.1 1.4-.1h.4c1.3 0 2.2.8 2.5 2v.2c.1 2.2.2 8.1.2 17.6.1 9.3.1 15.7.1 19.5l4.7-.1c-.1-3.3-.2-10.7-.2-22v-7.2c0-.7.2-1.3.6-1.7.4-.4 1-.6 1.8-.6h5.2c.9 0 1.6.3 2 .8.4.4.6 1.1.7 2.1v.2c0 2.9 0 5.4.1 7.4 0 11.3.1 18.4.3 21.2h3.7c0-2.3-.1-9.9-.1-23.2 0-12.1 0-13.7.1-14 0-.5.2-.9.5-1.4.5-.7 1.1-.8 1.5-.9 1.6-.1 2.9-.2 4-.2 2.2 0 3.2.2 3.7.8.5.5.5.7.6 8.2.1 4.8.1 12 .1 21.4v17.6c-.1 1.2-.3 1.9-.5 2.4-.2.4-.8 1.1-2.2 1.1z"/><path class="st7" d="M341.9 42c.2.2.3 9.8.3 28.8v17.4c-.1 1-.2 1.6-.4 1.9-.2.3-.5.4-1 .4l-35.1-.2c-.4 0-.6-.2-.7-.5-.1-.3-.2-.9-.2-1.6V65.1c0-9.6.1-16.9.1-21.7.1-.9.9-1.4 2.4-1.4h1.8c1 0 1.8 0 2.3-.1.7 0 1.2.3 1.3 1 .1 2.1.2 8 .2 17.6.1 9.6.1 16.2.1 20 0 .6.3.8.8.8l5.7-.1c.4 0 .6-.1.7-.2.1-.1.2-.3.2-.7v-.2c-.2-3.2-.2-10.6-.2-22.2v-7.2c0-.4.1-.6.2-.8.2-.2.4-.2.8-.2h5.2c.5 0 .9.1 1 .3.2.2.3.6.3 1.3 0 2.9 0 5.3.1 7.4 0 11.8.1 19 .3 21.6 0 .2.1.3.3.5.2.2.3.3.5.3.3.1.8.1 1.4.1h3.3c.6.1.8-.3.8-.9-.1-1.4-.1-9.3-.1-23.6 0-8.9 0-13.5.1-14 0-.2.1-.4.3-.7.2-.2.3-.3.5-.3 1.5-.1 2.9-.2 4-.2 1.6.2 2.5.3 2.7.5z"/><path class="st3" d="M371.6 95.9c-1.7 0-3.3-.7-4.4-1.9-.8-.8-1.3-1.9-1.5-3.2l-1.1-4.9h-3c0 .2-.1.4-.1.6-.6 2.5-.8 3-.9 3.3v.1l-.1.1c-.6 1.5-1.3 2.6-2.3 3.4-1.2 1.1-2.8 1.6-4.6 1.6-.5 0-1.1-.1-2-.2h-.2c-.6-.1-1-.2-1.2-.2-.6-.1-1.1-.1-1.5-.2-3.2-.5-5.3-2.9-5.3-5.9 0-.7.1-1.3.3-1.9l3.6-14.1 8-30.8.9-3.5h7.9c2.2 0 6.8 0 7.9 4 .3.9.9 3.5 3.4 14.4 1.8 8.2 3 13.4 3.5 15.6l3.1 13.6c.2 1 .4 1.8.4 2.6 0 1.8-.7 3.5-2 4.6-.8.7-1.8 1.3-3.1 1.8-1.2.4-2.4.8-3.6 1.1h-2.1z"/><path class="st5" d="M371.6 92.6c-.9 0-1.5-.4-1.8-.8-.4-.4-.6-1-.8-1.7l-1.6-7.6-8.2.1-.1.1c-.1.4-.4 1.2-.8 3-.6 2.3-.7 2.8-.8 3.1-.4 1-.8 1.7-1.4 2.2-.6.5-1.4.8-2.4.8-.2 0-.5 0-1.4-.2-.6-.1-1.1-.2-1.6-.3-.5-.1-1-.1-1.3-.2-1.6-.3-2.5-1.2-2.5-2.6 0-.4 0-.7.1-.9l3.7-14.3 8-30.8.3-1h5.3c2.8 0 4.3.2 4.7 1.6.4 1.3 1.5 6.1 3.3 14.2 1.8 8.2 3 13.4 3.5 15.6l3.1 13.7c.2.7.3 1.3.3 1.7 0 1.1-.5 1.8-.9 2.2-.4.4-1.1.8-2 1.1-1.1.4-2.2.7-3.3 1-.8-.1-1.2 0-1.4 0zm-7.9-30.1c-.2 1-.5 2.2-.8 3.8-.6 2.7-1 4.8-1.4 6.3 1.1 0 2.4-.1 3.8-.1-.1-.3-.3-1.4-1.1-6.4l-.5-3.6z"/><path class="st7" d="M359.7 42.8h3.9c2.4 0 3.7.2 3.8.6.4 1.2 1.5 5.9 3.3 14.1 1.8 8.2 3 13.4 3.5 15.6l3.1 13.6c.2.6.2 1.1.2 1.5 0 .5-.2.9-.5 1.2-.3.3-.8.5-1.5.8-1 .4-2.1.7-3.1.9-.4.1-.7.2-.8.2-.4 0-.6-.1-.8-.3-.2-.2-.4-.6-.5-1.1l-1.7-7.8c-.2-.6-.5-.8-1.1-.8l-8.5.1c-.2 0-.4.1-.6.3-.2.2-.4.4-.5.6-.2.5-.5 1.6-.9 3.3-.4 1.7-.7 2.6-.8 3-.3.8-.7 1.3-1 1.6-.4.3-.9.5-1.5.5-.2 0-.6 0-1.2-.2-.7-.2-1.3-.3-1.8-.3-.5-.1-.9-.1-1.2-.2-.9-.2-1.4-.6-1.4-1.3 0-.3 0-.4.1-.5l3.7-14.3 7.8-31.1zm3.4 16.1c-.2.8-.7 3.1-1.5 7.1-.7 3.2-1.2 5.5-1.5 7-.2.6 0 .9.6.9 1.2 0 2.8-.1 4.8-.2.5 0 .9 0 1-.2.2-.1.3-.3.3-.6 0-.4 0-.6-.1-.8-.1-.4-.5-2.5-1.1-6.3l-.7-4.1c-.5-2.6-.9-3.8-1.3-3.8-.1.1-.3.4-.5 1z"/><path class="st3" d="M390.4 95.2h-.6l-.6-.1h-.7l-2.5.1h-.4c-3.8-.3-6.4-3-6.4-6.7l-.1-23.2c0-17.6 0-21.2-.1-21.7v-.2c0-1.4.4-2.5 1.1-3.5.5-.7 1.6-1.8 3.5-2.2 1-.2 2.6-.5 6.4-.5 2.9 0 5.7.1 8.5.3 4 .3 7.5 1.8 10.5 4.4 3.1 2.8 5 6.2 5.4 10.3.1.6.2 1.9.2 4.9v2.8c0 3.8-1.1 7.4-3.3 10.7-2.2 3.3-5.3 5.8-9.1 7.4-1.4.5-3.1.9-5.3 1v.2c0 1.7 0 3-.1 3.9v5.5c.1 3.8-2.6 6.6-6.4 6.6zm6.4-40.2c0 1.6 0 3.5.1 5.8.1 0 .1-.1.2-.2.3-.4.4-.9.5-1.4.1-.8.2-1.8.2-2.9 0-.1-.2-.4-.6-.9l-.4-.4z"/><path class="st5" d="M390.4 91.8h-.2l-.6-.1c-.1 0-.3-.1-1-.1l-2.6.1h-.2c-2.1-.2-3.3-1.4-3.3-3.3l-.1-23.2c0-16.9 0-21.2-.1-21.9 0-.6.1-1.2.4-1.6.3-.5.8-.8 1.5-.9 1.1-.3 2.9-.4 5.6-.4 2.8 0 5.5.1 8.2.3 3.2.2 6.1 1.4 8.6 3.6s3.9 4.9 4.3 8.2c.1.8.2 2.3.2 4.5v2.8c0 3.1-.9 6.1-2.7 8.9-1.8 2.8-4.4 4.8-7.5 6.1-1.1.4-2.5.7-4.4.8-1.9.1-2.8.2-3.1.3 0 .8.1 1.9.1 3.3 0 1.7 0 3-.1 3.8v5.5c.1 2-1.1 3.3-3 3.3zm3.1-27.3c.4.1.9.1 1.5.1 2.4 0 4-.7 4.9-2.1.5-.8.9-1.7 1-2.6.2-1 .3-2.2.3-3.6 0-.9-.5-1.8-1.4-2.9-.8-1-1.7-1.6-2.7-1.8-.7-.1-1.5-.1-2.3-.1h-1.4c0 2.3.1 6.6.1 13z"/><path class="st7" d="M410 59.8c0 2.9-.8 5.6-2.5 8.1-1.7 2.6-4 4.4-6.9 5.6-.9.4-2.3.6-4 .7-1.7.1-2.8.2-3.3.3-.5.1-.8.2-.9.3-.1.2-.2.5-.2.9.1.8.1 1.9.1 3.4 0 1.7 0 2.9-.1 3.8v5.6c0 1.3-.6 2-1.8 2l-.6-.1c-.3 0-.7-.1-1.2-.1l-2.6.1c-1.4-.1-2.1-.8-2.1-2l-.1-23.2c0-13.7 0-21-.1-21.9 0-.4.1-.6.2-.8.1-.2.4-.3.7-.3.9-.3 2.7-.4 5.4-.4 2.8 0 5.5.1 8.1.3 3 .2 5.6 1.3 7.8 3.3 2.3 2 3.5 4.4 3.8 7.3.1.8.2 2.2.2 4.4v2.7zm-17.8 5.1c0 .2.1.3.2.5s.2.3.3.3c.6.2 1.4.2 2.3.2 2.9 0 4.9-.9 6-2.8.6-1 1-2 1.2-3.1.2-1.1.3-2.4.3-3.9-.1-1.2-.6-2.4-1.6-3.7-1-1.3-2.2-2-3.5-2.2-.8-.1-1.6-.2-2.5-.2h-1.6c-.8 0-1.2.4-1.2 1.2 0 2.5.1 7 .1 13.7z"/><path class="st5" d="M170.5 91.8c-1.4 0-2.8-.1-4-.3h-.2c-1.4-.4-2.2-1.4-2.2-2.9-.1-3.4-.1-8.9-.2-16.2-.1-7.3-.1-14.6-.1-21.9v-7c.1-1 .5-1.8 1-2.3.5-.5 1.2-.8 2.2-.9h.2l1.8-.1c.7 0 1.6.1 2.8.2h.3c.5.2.9.6 1.2 1.2.2.5.4 1 .4 1.4v.1l-.1 23.1c.8-2 2.2-5.5 4.2-10.6 2.6-6.7 4.4-11.4 5.5-14.1.4-1.3 2.1-1.3 3.9-1.3h4.3c.6 0 1.1.2 1.5.5.7.6.7 1.6.7 1.9v47.1c0 1.9-2.6 1.9-4.3 1.9l-2.9-.1c-1.3-.1-2.2-.6-2.5-1.4-.1-.3-.2-.9-.3-2.9l-.1-19.5c-1.4 3.5-3.2 7.7-5.3 12.6-4.5 10.5-4.9 10.8-5.5 11-.4.4-1.1.5-2.3.5z"/><path class="st6" d="M174.5 68.3c.6-1.3 2.2-5.3 4.8-12.1 2.6-6.8 4.5-11.5 5.5-14.1.1-.3.9-.4 2.6-.4h4c.5-.1.8 0 1 .2.2.2.3.5.3.9v47.1c0 .4-1 .5-3 .5l-2.8-.1c-.8-.1-1.2-.2-1.3-.5-.1-.3-.2-1.1-.2-2.5l-.2-24.3c0-.1 0-.2-.1-.4s-.1-.3-.2-.3-.4.6-.8 1.8c-1.6 3.9-3.8 9.2-6.7 15.9-2.9 6.7-4.5 10.2-4.9 10.4-.3.2-.9.2-1.8.2-1.3 0-2.6-.1-3.8-.3-.8-.2-1.2-.7-1.2-1.6-.1-3.4-.1-8.8-.2-16.2-.1-7.4-.1-14.7-.1-21.9v-6.8c.1-.7.3-1.2.6-1.5.3-.3.8-.5 1.5-.6l1.8-.1c.7 0 1.6.1 2.7.2.2.1.3.2.5.5s.2.6.2.8v.1l-.1 27.4c0 .8.1 1.2.2 1.2.2 0 .4-.4.8-1.2.3-.9.7-1.6.9-2.3zm89.6-8.5c0 2.9-.8 5.6-2.5 8.1-1.7 2.6-4 4.4-6.9 5.6-.9.4-2.3.6-4 .7-1.7.1-2.8.2-3.3.3-.5.1-.8.2-.9.3-.1.2-.2.5-.2.9.1.8.1 1.9.1 3.4 0 1.7 0 2.9-.1 3.8v5.6c0 1.3-.6 2-1.8 2l-.6-.1c-.3 0-.7-.1-1.2-.1l-2.6.1c-1.4-.1-2.1-.8-2.1-2l-.1-23.2c0-13.7 0-21-.1-21.9 0-.4.1-.6.2-.8.1-.2.4-.3.7-.3.9-.3 2.7-.4 5.4-.4 2.8 0 5.5.1 8.1.3 3 .2 5.6 1.3 7.8 3.3 2.2 2 3.5 4.4 3.8 7.3.1.8.2 2.2.2 4.4v2.7zm-17.8 5.1c0 .2.1.3.2.5s.2.3.3.3c.6.2 1.4.2 2.3.2 2.9 0 4.9-.9 6-2.8.6-1 1-2 1.2-3.1.2-1.1.3-2.4.3-3.9-.1-1.2-.6-2.4-1.6-3.7-1-1.3-2.2-2-3.5-2.2-.8-.1-1.6-.2-2.5-.2h-1.6c-.8 0-1.1.4-1.1 1.2-.1 2.5 0 7 0 13.7z"/><ellipse cx="54.9" cy="112.5" rx="54.4" ry="10.7" fill="#b3b3b3"/><path d="M54.9 101.9h-4.4c28 .4 50 5 50 10.6s-22 10.2-50 10.6h4.4c30.1 0 54.4-4.8 54.4-10.7 0-5.7-24.4-10.5-54.4-10.5z" fill="#ccc"/><path class="st10" d="M15.2 106l-.1-4.2.7-2.5 1.5-4.6 3.2-4 4.1-2.7.6-2.4 3.8-9.5 5.6-9.5 10.8-1 6.6 3.5 5.1 2.5 4.5.5 3.2 2.5-11.7 1.7-1.3 1.4 3.3 4.5 4.8 7.5-1.1 4.4-4 2.6-4.2 1.9h-3.3l-3.4-2.7-2.2-3.9-1-.4v4.1l.7 6.2 3.5 6.8 1.1 1h-1.6l-3.7-1-1.1 1.2-1.9 4.2-2.9 2.9-3.5.8h-3.1l-3.4-1.1-4.2-2.2-3.8-5-1.5-3.4"/><path class="st10" d="M66.4 75.2l2 1-2 3.7-5.6 7s1.5 4 1.7 4.2c.2.2 4.2 3.5 4.3 3.7.2.2 4.1 1.9 4.3 1.9.2 0 3.8-.1 3.8-.1l2.8-3.4 3-3.8 1.3-.8 1.2 5.8v7.3l-2.8 5.4 2.5 1.5 5.4 2.1h4.9l2.6-.6 2.8-4 2.2-5.7 1.4-6.1-2.2-2.7-2.8-.8H92l-4-1.3-4.3-3 2.1-2.1.5-7.1-.9-4.1-.8-2.2-7.6-.2-6.6-1.3-4.5 4.1.5 1.6zm36.7-24.7s3.9-9.3-3-21.6"/><path class="st10" d="M98.8 45.5l.4-2.7v-4l-1.6-3.4-1.1-2.4-2.1-4-.5-3.2.4-3.3 1.5-2.7.7-.8 4.3 3.5-.9 1.7-.2 2.4.2 1.7s1.8 0 2.4 1.2c1.4 2.9 2.5 9.5 2.5 15.3.1 8.4-6 .7-6 .7z"/><path class="st10" d="M100.7 22.8l-1.3 2.9.5 2.1 1.1.8 2.5.7 4-.2 1.8-2.4.1-2.4-1.2-1.4-3.8.6z"/><path class="st11" d="M108.7 23.5s.7 5.9-8.6 3.4c0 0-.4-.6-.4-.4 0 .2 1.4 2.4 1.4 2.4l3.3.7s1.8-.3 1.9-.3l2.2-.8s1-1.3 1-1.6c0-.3.1-1.5.1-1.5l-.9-1.9M69 95.3c.2 0 3.7-.7 5.7-4.8 1.1-2.3 4.1-4.2 7.1-7.4 2.1-2.2 2.7-11.4-1-12.3l3.8.1.6 2 1 6.3-.4 4.8-3.3 3.5-3.9 4.8-3.9 4.1-3.1.2-2.6-1.3zM43.8 71.7s-2.4 5.9 6 8.9c0 0 5.3 1.2 5.9 7.9.6 6.6 0 .4 0 .4l.5-1.7 1-.4 1-.4-5.8-8.6s-4.2-.6-4.8-1.2c-.6-.6-.8-.4-.8-.4l-2.5-2.4-.5-2.1m38.9 18.9s2 5.1 13.8 3.7l-.4-1.9.5-1-2.8-.7-3.2-.1-7-3.6-1 1.9.1 1.7z"/><path class="st11" d="M89.9 94.5s2.8 1.8-2.2 7.5c0 0 3.3-1.2 4.5-3.4 1-1.7-.6 4 8.3 4l.7-2.5 1.2-2.6v-3.1l-1.6-2.4-2.7-1.2-3.8.7m-73.5-.9s8.3-4.4 13 10.8c0 0-.1-7.1-3.7-11.3l-2.5-1.6H24l-3.2 2.1z"/><path class="st12" d="M15.8 105l1.5-1.9 1.7-.5 3.2-.8 3.3.2 2.4.4 2.6.6v-2.8l-2-2.5-1.9 1-.9 3-.5-2.3-2.2-2.3-1.5-.3-.9.8-.9 2.1v1.9l-1.2-1.7-.9-1.5-1.7.8-.5.8-.1 4.5z"/><path d="M16.3 104.9l2.1-1.5 3.7-.8 3.8.3s4.2 1.2 4.5 1.2c.3 0 4.6 3.2 4.6 3.2l2.1 2.1 1 3.5-1 1.9-1.7 1.7-2.3 1.3-4.1.4-5.7-1.4-3.8-3.8-3.5-5.1-.4-2.5.7-.5z" fill="#ae9479"/><path d="M22.4 103s15.9 4.7 12.5 13l1.6-.9.8-1.3.5-1.9-.8-2.5-1.8-1.7-1.9-2.2s-2.7-1.2-2.8-1.4c-.1-.1-4.6-1.5-4.6-1.5h-3.6l.1.4z" fill="#ccad8d"/><path class="st12" d="M100 102.3l-3.1-1.5-2.2-2.2.1-1.6 1.4-.6 1.7-.3.4-.2-1.5-1.2-.7-1 .1-1.9 1-.9 1.8.6s1.6.9 1.7 1c.1.1 1.5.5 1.5.5s.3.5.3 1.1c0 .6.1.2-.2 1.7-.3 1.5-.5 2.3-.5 2.9 0 .5-.5 1-.7 1.7-.2.8-1.1 1.9-1.1 1.9z"/><path class="st15" d="M94.8 98.9s2.1-2.7 6.6-.7l.3-1.1-3.3-1.1-3 .5-.8 1.2.2 1.2zm1.4-5.7s1.3-2.5 5.6 1.8v-1.4l-1.3-1.6-2.2-1h-1.4l-.4 1.6-.3.6zm-79.4 10.9c-.9-3.1.3-4.4.9-4.7l-.4-.5-1.2.6-.6.9-.2 1.9.2 2.8 1.2-.7c-.1-.1 0-.2.1-.3zm6.3-6.3s-2.6.9-1.7 4.4l-1.6.2-.2-1.3s.2-2 .3-2c0 0 .6-1 .8-1.2.2-.2.8-.5.8-.5s.4-.1.6-.1c.2 0 .9.3.9.3l.1.2zm6.1.8s-1.9-.4-1.9 4.1v.1l-1.6-.6v-1l.7-1.6s.3-1.2.4-1.3c.1-.1 1-.7 1-.7s.4-.1.6-.1c.2 0 .5-.1.7.1.1.3.1 1 .1 1z"/><path class="st12" d="M54.7 96.5l-1.3-1.7s-.3-2.6-.3-2.7c0-.1.2-1.9.2-1.9l1.7.1 1.4.9s-.2-1.6-.2-1.8v-1.9s.5-.9.8-.9c.3 0 .9-.4.9-.4s.4.1.8.5 1 1.5 1.2 2c.3.6.3.9.3 1.4 0 .5 0 1.2-.3 1.7-.3.6-5.3 4.7-5.3 4.7m7.9-5.8l-.7-4.6 1.3-1.4 1.7.3s1 .2 1.1.3c.1.1.4 1.5.4 1.7v.9l1.5-.2 1.3.4.1 2.9-1.4 3.9-3.8-1.7-1.5-2.5z"/><path class="st15" d="M56.2 95.8c-2.9-3.2-2.2-5.3-2.1-5.5l-.7-.5-.4.3s-.2 1.8-.2 2c0 .2.9 2.8.9 3 0 .2.5 1.5.5 1.5l1.3-.4c.3-.2.5-.3.7-.4zm1.2-8.9s-1.3 1.4 2 5.2v1l-.9.4s-2-1.1-2-1.4c0-.3-.7-2.2-.7-2.2s0-1.6.1-1.8c.2-.2.8-1.2.8-1.2h.7zm5.1 2.6s-.5-3.1 2.4-3.8c1.7-.4.6-.6.4-.6-.2 0-3.1.2-3.2.3-.1.1-1.1 2-1.1 2s.9 1.1.9 1.3l.6.8zm6.8-.7s-2.2.1-4.6 4.6l-.5-.7.7-2s.6-1 .6-1.1c.1-.1.6-.8.9-1 .3-.2 1.4-.9 1.4-.9l.9.1.6 1z"/><path class="st7" d="M43.2 105.7L40.8 97l.4-5.5 2.6 3.8 2.4 3.2s3.4.2 3.6 0c.2-.2 6.4-1.6 6.4-1.6l3.8-5.2 1.4-2.6 2.9 4.4 8.6 3.2s2.9 0 2.9-.6 3.4-5.3 3.6-5.3c.2 0 2.4-2.5 2.4-2.5l.4 3.2.2 9.1-3.6 8-4.1 4.5-8.6 3.3-7.4.2-11.4-5.6-3-3.8-1.1-1.5z"/><path d="M51.1 77.5l2.9-.9s5.1-1.2 5.3-1.4c.2-.2 5.6-.5 5.6-.5l3.3.9L61 87.3l-1.7-.1-7-9-1.2-.7z" fill="#bf1a45"/><path class="st3" d="M50.7 98.1s1.8 18.3 25.6 13.6l-8.3 5.1-13.8-.6-7.4-5.6-5.3-7.7-1.3-11 3.7 3.7 4 3.1 2.8-.6z"/><path class="st17" d="M15.6 100s2.5-5.6 4.8 2.4l-.7.3s-2.1-6.3-4.1-.9V100z"/><path class="st17" d="M19.9 103.1l.5-.1c-.1-.2-.1-.5-.1-.7-.3-2.2.6-4.2 2-4.4 1.4-.2 2.8 1.5 3.1 3.7 0 .2 0 .5.1.7l.8-.1c0-.3 0-.6-.1-1-.4-2.9-2.2-5.1-4-4.9-1.8.2-3 2.8-2.6 5.7 0 .3.1.7.2 1-.1.2 0 .1.1.1z"/><path class="st17" d="M28.4 97c-1.4-.1-2.7 2.1-2.9 4.8h.7c.3-1.9 1.2-3.3 2.2-3.3 1.1.1 2 1.9 1.9 4.2 0 .2 0 .5-.1.7h.6c0-.3.1-.6.1-1 .1-2.8-1-5.3-2.5-5.4z"/><path class="st10" d="M103.6 46.9c-.3-.7-.6-1.3-1-1.8-1.1-.3-2.2-.7-3.4-.5-.8.1-1.4-.2-1.7-.6v.4l-1.1-3.3-3.5-7.7-3.6-2.7-6.6.5-3.8 4.3-1.4.8-1.6-4.7-2.2-2.2-3.9 1.6-11.4 3.3-13.1 2.5-8.3.9h-5.4l.5 4.5-8.4-3.8-2.6-.1-6.4 5.1L9 48.8l-3.3 5.1-.6 3.5 1.8 12.3 5 9.5 3.6-2.5-.3-2.2 2.3.8 2.3.6 3.7-1.2 3.7-3.3L31 67l1.3-2.1 4.2 2.8h2.1l1.7.9 3.8.8 2.1.2 1.5.1 1.1 1 3.6 2.2 7.3 2.5h5.5l5.1-2.3 2.1-2.4-1.4-1.4 5 1.8 13.9-.3 9.6-4.7 5.7-9 1.7-7.7c-1.5 0-2.7-1.2-3.3-2.5z"/><path class="st2" d="M40.8 50.5l-.7-2.2s.3-3.5.4-3.9c0-.3 1.8-2.8 2-3 .2-.2 3.7-1.1 3.7-1.1l1.5-.3 2.5.6s1.9 1.1 2.3 1.5c.3.4 1.6 2.6 1.6 2.6l.4 3.6-.2 1.1-1.3 2.3-1.3.4-1.5-.7-3.5-1.1-3.6-.2-2.3.4zm24.6-9.1l.3-2.5.8-.6 1.8-.8 3.2-.2 1.3 1 1.6 2s.5 2.3.5 2.5c0 .2-.1 2.5-.1 2.5l-1.4 1.4-2 .8-3 .1-1.8-2-1.6-3.1.4-1.1z"/><path class="st11" d="M108.2 44.5c-.1 0-.2 0-.3.1v-1.9l-.7-4.8-2.1-5.9-.7-2-1.5-.9-2.1-.7s3.5 5.9 3.5 16c0 1.7-.8 5.2-1.6 7.1 0 0-5.9 16.3-31.3 12.8 0 0-16 .4-24.9-4.5l-1.3.3 1.9 2.2 3 1.9 4.4 1 4.8.8 7.3 2.6L72 70l7.1.9 10.9-.8 6.6-2.1 6.3-4.8 3.6-9.3.9-4.6h.1l.6-3.1v-.3l.1-1.4z"/><path class="st11" d="M93.5 34.6l-.5-1-3-2.8-4.5-.3s-5 2.9-5.1 3.2c0 .4-2.7 2.7-2.7 2.7l2.5 5.9c-.3-.8-.7-2.8 1.3-4.9 0 0 6.4-7.7 11-2.4.4-.2.7-.3 1-.4zm-63 10.2l-2.6-1.3-4.2-.4-3.5.9-5.3 4.2-3 5-.9 5.2s.4 7.8.9 9.7c.6 1.9 5.6.9 11.1-1.2 12-4.6-3.2-17.9 7.5-22.1zm48.4-1.4s8.1 1.7 1.9 10.9l2.2.9 1.4-1.1 2.1-3.7v-4.7l-4-2.6-2.4-.2-1.2.5z"/><path fill="#f3c600" d="M31.7 37.7L30.2 33l-1.9-8.2-.7-9.4 3.1-5.8 3.8-3.9 7.8-1.5L47 2.8l7.7-.4 3.2.3 5.3 1.6L68 5.7 69.9 9l2.4 8.2 1.7 3.1.4 6.7-.8 2.3-6 2.4L57 34.6l-8.7 1.7-8.2 1.1z"/><path d="M35.8 6.2s-13.4 10.9 5.8 11.7c0 0 7.2 1.5 12.3-3.5 0 0 8.9-5.8 15 3.5l2.6 6.5-4.2 1.3-9.6 2.2-1.4 2.1.4 2.9.8 1.7-8.8 1.5-9.2 1-7.8.7-2.3-7.3-1.3-10.1 1-7.7 3.2-4.9 3.5-1.6z" fill="#d8b400"/><path class="st20" d="M27 16.5s-4.8-.4-5.5-.5c-.7-.1-8.2 1.3-9.4 1.2-1.3-.2-6.6 1.8-7 2.1-.4.3-3.4 4-3.4 4.6-.1.6-.5 5.5-.5 5.5L3.3 33l4 1.4 4.6 1.8 4.4 1.2 5.1.7 10.7-.7-1.3-2.4s-2.2-6.7-2.2-7c0-.3-.8-9.1-.8-9.1l-.8-2.4z"/><path fill="#6a431d" d="M57.5 27.1L56.3 24l-.6-3.2.9-.9 4.2-1.5 3.2-1 1.9-.1 2-.2 1.6 1.9 1.5 5.5-7.4 2-5.9 1.4z"/><path class="st20" d="M57.4 33.5l-1-1.6-.2-2.5 1.2-1.1 13.2-3.7 1.7 4.9-1.3 1.1-10.1 3.7-2.8-.2-.7-.2"/><path d="M28.4 23.4s-23.1 3.9-5.5 14.4l9 .2-2.8-7.5-.7-7.1z" fill="#31742f"/><path class="st23" d="M9.1 32.3c-3.9-1.8-5-4.1-5-6.1 0-.7.2-1.4.3-2 1.6-4.9 8.8-5.7 14.7-5.7 4.6 0 8.4.6 8.4.6l-.1 1s-3.8-.6-8.3-.6c-5.8 0-12.6 1.1-13.7 5-.2.5-.3 1.1-.3 1.7 0 1.5.7 3.4 4.4 5.1 3.7 1.8 10.3 3.3 21.9 3.9l-.1 1c-11.5-.6-18.3-2.1-22.2-3.9z"/><path class="st23" d="M12.2 31.2c-3.2-1.5-4.1-3.4-4.1-5 0-.6.1-1.2.3-1.6 1.4-4 7.3-4.7 12-4.7 3.7 0 6.8.5 6.8.5l-.1 1s-3.1-.5-6.7-.5c-4.7 0-10.2.9-11.1 4-.1.4-.2.8-.2 1.3 0 1.2.6 2.7 3.5 4.1 3 1.4 8.4 2.7 17.7 3.2l-.1 1c-9.3-.6-14.8-1.8-18-3.3z"/><path class="st11" d="M54.1 70.4l1 .1c3.8.2 12.6.4 9.7-2.4l3.1.6-.1 1.1-.5 1s-2 2-2.2 1.7c-.2-.3-3.2-.1-3.2-.1l-3.3-.3-5.1-1.7"/><path class="st17" d="M32.4 37.7c-.3.3-.8.4-1.2.4.1 1.8.2 3.4.2 3.4l1.8 1.4c-.4-1-.6-3.2-.8-5.2z"/><path class="st24" d="M44.5 1.8s-.5.7.4 1.2l8.6-.9s.3-.9-.1-1.8-8.9 1.5-8.9 1.5zm29.2 26.8c-.1.3.7 1.2.7 1.2s1.8-3.2-1.6-7c0 0 1.5 4 .9 5.8zM58 33.9c-6.8 1.6-15.6 2.9-26.4 3 .2.4.3.8.3 1.3 0 0 13.8.1 27.7-3.3-.7 0-1.2-.4-1.6-1z"/><path class="st24" d="M46.8 36.5c.3 0 .9.4.8.1-3.4-12.7-4.8-22.4-3.4-26.8.2-.8 4.5-6.4 6.5-7.9-.5 0-.7 0-1-.2-3.5 2.4-6.3 6.8-6.7 7.7-2 5.4.5 16.1 3.4 27.2.2-.1.3-.1.4-.1z"/><path class="st24" d="M65.2 17.2c-.5-1.8-.9-6.7-5.2-10.5-2.8-2.5-9.5-4.6-11-4.9-.2.4.1.5-.3.6 2.1.4 8.8 3.3 10.6 5 3 2.9 4.2 7.4 4.9 9.9.5-.2.5-.2 1-.1z"/><path class="st23" d="M27.8 17.2c-.4 0-28.3-3.5-25.6 11 1.4 7.6 20.2 9.7 29.4 8.9l.4 1.1S4.3 40.6.3 28.4c0 0-4.8-15.8 27.2-12.5l.3 1.3z"/><path class="st24" d="M40.3 12.1c0-.4-.8-.8-1.8-.8s-1.9.3-1.9.8c0 .4.8.8 1.8.8 1.1-.1 1.9-.4 1.9-.8zm-2 .2c-.7 0-1.2-.3-1.2-.5 0-.3.5-.5 1.2-.5s1.2.3 1.2.5c0 .3-.5.5-1.2.5zm19-2.6c-.1-.4-.9-.6-1.9-.4-1 .2-1.7.7-1.6 1.2.1.4.9.6 1.9.4 1-.3 1.7-.8 1.6-1.2zm-1.8.7c-.6.1-1.2 0-1.2-.2-.1-.3.4-.6 1-.8.6-.1 1.2 0 1.2.2.1.3-.4.6-1 .8z"/><circle class="st25" cx="59.9" cy="31.1" r="1"/><circle class="st25" cx="63.2" cy="30.1" r="1"/><circle class="st25" cx="66.3" cy="29" r="1"/><circle class="st25" cx="69.3" cy="27.9" r="1"/><path class="st24" d="M67.6 16.7c-4.5-.3-11.6 2.4-12.2 3.6-.8 1.7 1 6.5 1.6 7.5 0 0-.2-.1-.1-.1.4 0 .7-.1 1.1-.2-1.3-2.8-1.7-4.7-1.8-5.9-.1-1.2.7-1.5 1.1-1.7 3-1.4 7.8-2.9 10.6-2.2 1.7.4 3.1 8.2 3.1 8.2l1.3.3c-1.4-5-2.1-9.3-4.7-9.5z"/><path class="st24" d="M74.3 25.8s-3-16.2-6.9-19.5C64.9 4.2 58.1 2.5 49.3 3c0 0-8.3.1-16.2 5.5-2.1 1.4-4.5 4.2-4.6 10.5-.1 3.4.5 11.1 3.8 17.9l-.3 1.3s-7.4-12.8-4.5-24.3c0 0 1-10.1 21.9-12.4 0 0 17.7.1 20.8 5 3.1 5 6.4 19.9 4.5 21.7l-.4-2.4z"/><path class="st23" d="M73 28.7c-.3-1.9-1.1-4.8-2.3-4.8L57 27.6s-1.2.4-1.4 1.5c-.4 1.6-.2 4.6 2.3 5.8.4.2.8.4 1.4.4.4 0 1.4-.4 1.4-.4s9.1-2.5 11.6-4.1c.5-.3.9-1.1.7-2.1zm-1.4 1c-1.9 1.2-8.8 3.2-11.3 3.9-.4.1-.9.3-1.1.3-.2 0-.4-.1-.6-.2l-.1-.1c-1.9-.9-1.8-3.4-1.6-4.3 0-.2.4-.4.6-.5l13.2-3.5c.3.3.7 1.4 1.1 3.6 0 .5-.2.7-.2.8z"/><path class="st24" d="M73 28.8c.1.6-.2 1.1-.4 1.7.6-.3 1.3-.5 1.8-.7-.1-.6-.5-1-.1-1.5-.3.1-.7.3-1.3.5z"/><circle class="st20" cx="69.3" cy="43.5" r="4"/><path class="st17" d="M34.7 43.3s-8.5-7.2-13.9-5.3c0 0-14.3 8.6-16.7 16.8 0 0-2.5 10.7 7.6 25.8 0 0 1.4-1.6 4.3-3.5 0 0 .1-.9-.7-2.1 0 0 .8-.1 2 1.5 0 0 4-.2 5-.6 3.6-1.7 7.7-7.1 10.3-10.9l-.4-.6S25 74 21.6 74.9c0 0-1 .6-4 .4 0 0-.8-1.3-3.6-1.2 0 0 1 .9 1.1 2.3 0 0-2.2 1.4-3.1 2.2 0 0-7.5-10.6-6.3-23.5 0 0 3.5-8.2 14.7-15 0 0 3.1-3.4 13.2 3.7.2 0 1.4.5 1.1-.5zm20.2 26.8c-1.9-.8-4.1-2-6.7-3.9 0 0 5.6 6.1 12.2 6.7 2.2.2 8.1-.1 8-3.8l-.5-.2s-1.3 3.2-6.7 2.8c-1.6-.2-3.7-.5-6.3-1.6zm-4.8-9.5s-4.1-3.5-8.5.9c0 0-.9 1.6 2 .2-.1 0 1.6-3 6.5-1.1zm4-13.3c.1 1.7-.4 3.2-1.2 4.4h.2c1.3-1.4 2-3.2 1.9-5.2-.2-3.4-3.8-7.4-8.2-7.2-4.4.2-7.7 3.7-7.5 7.9.1 1.3.5 2.4 1.1 3.4.2-.1.5-.2.8-.3-.3-.7-.5-1.5-.5-2.3-.2-3.9 2.7-7.2 6.4-7.4 3.6-.2 6.8 2.8 7 6.7z"/><path class="st17" d="M42.9 40.6s3.6-2.9 9.3-1.1c0 0-3.8-.4-4.7.6l-4.6.5zm8.5 11.5l.3.3.2.1h.1c2.1-.8 3.9-.8 3.9-.8-1.6-.5-3.7.1-4.5.4z"/><path class="st20" d="M46.1 50.2c1.2 0 2.4.2 3.5.6 1-1 1.6-2.4 1.5-3.9-.1-2.8-2.5-4.9-5.3-4.8-2.8.1-4.9 2.5-4.8 5.3.1 1.1.5 2.2 1.2 3 1.3-.3 2.5-.3 3.9-.2z"/><circle class="st26" cx="45.9" cy="47.3" r="3.2"/><circle class="st2" cx="43.7" cy="45.6" r="1.5"/><path class="st17" d="M38.5 51.4s8.6-2.6 14.5 1.9c0-.1-5.4-6.3-14.5-1.9zm56.6-.4l-.1.1c-.5.5-.9.8-1.6 1-.4.3-.5.5-.5.5-3.7 3.8-1.3 7.2-1.3 7.2-.7-3.8.5-5.1 1.7-6.2 1-1 1.7-1.9 2.2-2.6-.3-.1-.4 0-.4 0z"/><path class="st17" d="M91.6 54.1s-6.7 1.8-6.4 7.5c0 0-1.8-7.5 7.7-8.9l-1.3 1.4z"/><path class="st17" d="M87.2 56.1s-4.8-1.8-9.8 3.8c0 0 2.6-6.7 10.9-5l-1.1 1.2z"/><path class="st17" d="M83 55.4c.3-.2.7-.4 1-.4-12.8-6.3-19.3 1.7-19.3 1.7 7.3-5.8 17.3-1.1 17.8-.9.2-.1.3-.3.5-.4z"/><path class="st17" d="M72.9 53s-1.9-3.6-5.1-4.8c0 0-6.7-6.3-.3-12.4 0 0-4.1 6 1 11.4 0 0 3.2.8 6.6 5.9l-2.2-.1z"/><path class="st17" d="M70.1 36.6c-1.7.1-3.6 1.2-4.4 2.8.2.2.1 1.6.2 1.8.1-1.3.6-3.3 4-3.5 2.5-.1 4.5 2.1 4.7 4.9.1 2.8-1.4 4.7-3.9 4.8-.5 0-1.8.1-2.3-.1 0 .2-.1.4-.2.6.6.2 1.3.3 2.9.3 3-.2 4.8-2.4 4.6-5.7-.2-3.5-2.7-6.1-5.6-5.9z"/><path class="st17" d="M73.4 46.3s2-2.9 4.1-2.5c0 0-2.1.7-3.3 2.8"/><circle class="st26" cx="69.2" cy="43.8" r="2.8"/><circle class="st2" cx="67.5" cy="42.2" r="1.1"/><path class="st17" d="M78.7 43.4s3.9-1 6.6 2.5c1.4 1.9 2.2 4.9-2.3 9.4l.5.6s7.5-5.6 3-11.2c-1.5-1.9-5.3-2.8-7.8-1.3zm-32-5.8c1.9-.2 2.7-.1 4.6.5-1.3-1.1-3-1.6-5.2-1.3-3.3.4-5.9 2.3-6.3 4.6 1.1-2.1 3.8-3.5 6.9-3.8zm24.5-1.7c1 .2 2 .7 2.6 1.2-.5-.7-1.3-1.4-2.4-1.7-1.7-.4-3.3.2-3.9 1.2.9-.7 2-1 3.7-.7z"/><path class="st17" d="M77.7 34.5c-.3-1.7-.9-3.1-1.7-3.6-.5-.3-1.1-1-1.5-1.6-.2.4-.2.5-.8.8.3.3.6.7.9 1.1.7.8 1.5 1.2 1.8 3.1.9 5 3.6 8.9 3.6 8.9l1.6-.5c-2.2-2.7-3.5-6.2-3.9-8.2z"/><path class="st17" d="M77.5 36.3s3.8-5.3 8.1-6.2c4.1-.8 10.3 2.1 13.3 15l-1 1.7s-3.6-14.2-9.5-15.2c-2.8-.5-5.8.8-10.2 5.7l-.7-1zM31 44.5c-1-.9-5.4-2.7-7.6-2.3-3.7.8-10.1 6.1-11.8 9.5-1.4 3-.1 13.1-.1 13.1s-.3-9.7 1.2-12.4c1.7-3.2 7.8-8.7 11.1-9.3 2.9-.5 7.5 2.1 7.5 2.1s.2-.3-.3-.7z"/><path class="st17" d="M88.1 34.4c2.5.7 4.4 3.5 5.4 6.3 1 2.9 1 5.6 1 5.6s-.2-2.6-1.5-5.4c-1.6-3.6-3.3-5.1-4.8-5.6-3-1.1-6.6 2.3-6.6 2.3s2.9-4.2 6.5-3.2z"/><ellipse transform="rotate(-10.327 48.911 1.114)" class="st24" cx="48.9" cy="1.1" rx="4.5" ry=".8"/><circle class="st2" cx="60.3" cy="31" r=".5"/><circle class="st2" cx="63.6" cy="30.1" r=".5"/><circle class="st2" cx="66.5" cy="28.9" r=".5"/><circle class="st2" cx="69.6" cy="28" r=".5"/><path class="st17" d="M51.5 68.6c-3.5.2-9.1.2-12.5-.8-3.1-.9-8-2.6-7.8-9.1.1-2.4 1.4-3.9 3.7-4.6 0 0-4.2.4-5 4.4 0 0-1.7 8 8.8 10.6 3.5.9 7.7 1.1 13.9.3-.3-.2-.7-.5-1.1-.8zm56-20.4v.4c-.1.8-.3 1.5-.5 2.4-.1.7-.3 1.4-.5 2.1-.3 1-.7 1.7-1.3 2.3-.3.9-.6 1.7-1 2.6-1.8 4.1-6.6 9.8-14.1 11.3-4.1.9-12.6 1.2-16.8.4-3.1-.6-9-3.2-12.1-4-2.9-.8-9.4-1.3-12.2-2.4-2.5-1-3.2-3.5-3.2-3.5l-1.1.6s1.1 3.1 4.1 4.1c2.9 1 9.1 1.8 12.1 2.7 3.1.9 9 3.7 12.2 4.2 4.4.7 12.8.5 17.6-.6 8.5-1.9 12.9-7.2 14.9-11.7 1.6-3.6 2.4-7.6 2.6-11.1-.2.2-.5.2-.7.2z"/><path class="st17" d="M34.3 66.2c-1.6 2-7.1 9.5-10.4 22.3 0 .1 0 .2-.1.3h.5c.2 0 .5 0 .7.1.5-1.5 5.2-17.1 10.9-21.7-.8-.2-1.3-.5-1.6-1zM32.6 104c-3.6-2.2-12.8-4.4-17.1.4 0 .2.2.2.1.4-.1.4-.2.9-.3 1.3 0 .1-.1.3-.1.4 1.9 4.2 10.3 17 20.5 10.5 2.8-1.6 6.9-6.7-3.1-13zm2.6 11.7c-2.3 1.6-10.6 5.8-19.4-9.8.1-.2.5-.8 1.3-1.3 2-1.5 6.6-3.3 14.4.8 0 0 9.9 5.8 3.7 10.3z"/><path class="st17" d="M15.8 101.6c.7-7.1 6.4-13.3 10.6-12.9 4 .4 6.9 8.3 6.9 8.3s-1.2-8.7-6.9-9.6c-4.4-.7-11.1 6.3-11.6 14.1.2.2.8-.2 1 .1zm1.7 2.7s-1.7.8-.9 3c.9 2.2.1 2.2.1 2.2s-3.2-3.1-.6-5.6"/><path class="st17" d="M15.3 107.1s.6 3 5.3 7.4c3.5 3.3-.2-1.5-.2-1.5l-3.5-4.4-1.6-1.5z"/><path class="st17" d="M15 100s-.9 3.7.4 7.3c1.2 3.6.5-.7.5-.7v-1.2s-.4-3.5.4-6.5L15 100zm23.6 13.8s2.1-3.3 2.1-5.1c0 0-.4-6.7-4.4-9.3 0 0 3.2 4.8 3.2 9.3 0 0-.5 1.6-1.1 2.1l-.1.1.3 2.9zm15.9-17.3l.8-.2c-.1-.2-.3-.4-.4-.6-1.3-1.8-1.9-4.4-1-5.1.8-.6 2.3 1 3.6 2.9.1.2.3.4.4.6l.5-.3c-.2-.3-.3-.5-.5-.8-1.7-2.4-3.7-4.3-4.9-3.5-1.1.8-.9 4 .8 6.4.2.3.4.5.6.8 0-.1 0-.1.1-.2zm45.4 5.3c-2-.7-5.1-2-4.8-3.8.2-1.2 2.5-1.6 4.6-1 .2.1 1.9.5 2.2.6v-.5c-.3-.1-1.9-.8-2.2-.9-2.8-.8-5.8-.3-6.1 1.3-.3 2.4 3.3 4.1 6.1 4.9.1-.2.1-.4.2-.6z"/><path class="st17" d="M96.7 92.8c.1-.9 1.2-1 1.8-1v-.1c0-.3.1-.5.1-.8-1 .1-3.1.2-3.2 1.9-.1 1.3 1.5 3.1 4.1 4 0-.1 0-.2.1-.3 0-.1 1.1.2 1.2.1-1.8-.7-4.3-2.3-4.1-3.8zm-56.1 16.7h.1c.7.1 3.8.7 5 .7v-.6s-4.4-1-5.5-1.9"/><path class="st17" d="M103.1 93.6c-.3-1.4-3.4-3.2-4.9-3.4-3.8-.5-8.5 1.3-14.4-4.4-.1.2-.2.3-.4.5-.1.1-.3.2-.5.3 1.5 1.8 5.7 5.7 14.5 5.1 1-.1 3.5 1.4 3.7 2.3.8 3.7-3.2 13.3-6.7 15.8-1.5 1.1-5.6.4-7.4 0-1.8-.4-6.8-3.4-6.8-3.4v1.1l.1.1s4.4 3.3 6.1 3.8c2.1.6 6.9 1.4 8.6.1 4.3-2.8 9.2-13.5 8.1-17.9zm-52-14.1s-3.2.8-4.4 2.3c0 0-1.3 1.7-1.5 4.7 0 0 1.1-3.4 2.5-4.5 1.5-1.2 2.4-1.9 3.4-2.5zm1.5 1.4s-3.2.8-4.4 2.3c0 0-1.3 1.7-1.5 4.7 0 0 1.1-3.4 2.5-4.5 1.4-1.2 2.4-1.9 3.4-2.5zm22.5 2.3s-.9-2.7-2.2-3.6c0 0-1.5-1-4.1-1 0 0 3 .8 4 1.9 1 1 1.7 1.8 2.3 2.7zm-1.2 1.3s-.9-2.7-2.2-3.6c0 0-1.5-1-4.1-1.1 0 0 3 .8 4 1.9 1.1 1.2 1.8 2 2.3 2.8zm-15.2 2.8s-3.5-.8-1.4 3.4c0 0 1.4 2.2 2 2.4l-1.1 1.1s-4.3-4.1-2.3-7.5c.4-.6 1.9-.9 2.9 0l-.1.6zm9.3 7.1l-.8-.2c.1-.2.3-.4.4-.6 1.2-1.9 1.7-4.5.8-5.1-.9-.6-2.7 1.5-4 3.4-.1.2-.2 0-.3.2l-.1-.3c.2-.3-.1-.7 0-1 1.6-2.5 3-4.5 5.2-3.6 1.2.6 1.1 4-.5 6.5-.2.3-.4.6-.6.8.1 0 0 0-.1-.1z"/><path class="st17" d="M62.8 85.7s4.1-1.6 2.1 2.8c0 0-1.4 2.3-2 2.6l1.2 1.1s4.4-4.4 2.2-7.8c-.4-.6-2.8-.5-3.8.6l.3.7z"/><path d="M82.9 87.8c-.1 1-1.1 1.6-2.1 1.7.7 2.1 1.1 4.4 1.1 6.7 0 10.9-8.8 19.7-19.7 19.7-10.9 0-20.6-8.8-20.6-19.7 0-1.2.1-2.5.4-3.7-.7 0-1.3-.2-1.7-.6-.3 1.4-.4 2.8-.4 4.3 0 12.3 10 22.3 22.3 22.3s22.3-10 22.3-22.3c0-2.9-.6-5.8-1.6-8.4zm-14.4-13c-2-.6-4.1-.9-6.3-.9-4.2 0-8.1 1.1-11.4 3.1.7.2 1.2.7 1.5 1.3 3-1.7 6.4-2.8 9.9-2.8 2 0 3.9.3 5.8.9.1-.3.2-.6.4-.9 0-.2 0-.4.1-.7z" fill="#971a34"/><path class="st17" d="M103.1 29.7s7.6 12.2 1.8 26.9l1 2s7-13.8-.8-28.8l-2-.1z"/><path class="st17" d="M100.2 22.4s-4 4.7.7 7c2.2 1.1 8.8 1.1 9.1-3.5 0 0 .3-1.4-1-2.7-1.2-1.2-.7 0-.7 0s1 1.7.7 2.7c-.4 1.5-1.9 3.8-7.8 2.1-1.2-.3-2.1-3.9.9-4.9l-1.9-.7z"/><path class="st17" d="M96 18.8s-6.3 4.8-.8 13.2c1.9 2.9 4.6 7.8 3.3 13.2-.4 1.4-2.9 5.2-5.4 7.1 0 0-.2.2-.3.2l.6.7s12.3-7.7 3.2-21.1c0 0-5.8-8 .5-12.3M85.9 72.9s-2.3-4.2-1.2-.4c1.2 3.8 1.2 10-.5 11.8-4.4 4.8-5.5 5-8 9.2-.4.7-2.8 2.3-3.4 2.2-11.6-2.4-10.9-8.9-10.9-8.9 9.9-11.6 6.4-13.4 6.4-13.4 1.3 2-5.8 10.5-8.2 13.3-.1.4-.2.8-.5 1.1.3.6.7 1.3 1.2 2.2 2.6 4.8 8.4 6.8 12.2 7.6 2.2.5 4-2.1 4.6-3.1 2.3-4.3 5.9-6.1 8.3-8.8 2.9-3.5 0-12.8 0-12.8z"/><path class="st17" d="M33 77s-3.6 5.8-2.9 11.1c0 0 0 2.8 6 2.8 1.7 0 4.5.5 5.8 3.4 0 0 2.7 5.5 6.3 5.3 0 0 8.2-.5 12.6-7.4 1.1-1.8-.5-4.2-.5-4.2l-7.6-10.6s-3.4-.7-6.2-2.4c-2.8-1.7-2.8-3.8-2.8-3.8s-1.9 4.9 8.1 7.4c0 0 6 7.7 7.5 10.5.3.5.6 1.5.1 2.1-1.3 1.8-4.8 5.6-10.8 6.8 0 0-2.5.3-5.7-5.2-1-1.6-3.1-3.5-6.9-3.5-.6 0-1.1 0-2.3-.1-2.8-.3-3-5-.7-12.2zm30.7 8.5s-1.4.5-1.8 1.2c-.4.7-.1-.7-.1-.7s.1-.3.2-.4c.1 0 .8-.5.8-.5h.2c.1 0 .7.4.7.4z"/><path fill="#3abff0" d="M92.6 9.8l2.3-5.1 2.5-1.6 3.3-1.4 3.5-.6 3.3 1 2.4 1.4 2.7 2.5 1.7 4.7v4l-1.7 4-2.1 2.8-3 1.5-3.2.7-3.5-.1-4.1-1.8-2.8-3.2-1.2-2.3-.7-4.8z"/><path class="st6" d="M96.4 3.4c-6.2 6.2.8 23.4 17.3 14.2l1.1-3v-3.2l-1-3.4-2.4-3.3-2.8-1.9-3.4-1.4h-3.8L98 2.5c.1-.1-1.3.6-1.6.9z"/><path d="M99.4 1.9s-8.5 1.4 7.2 5.4c5.9 1.5 6 12.8 7.7 5.8l-.2-3.6-2.1-4.2-3.7-2.9-6.5-1.1-2.4.6z" fill="#cbe9fc"/><path d="M101.7.8c-6.5.9-11 6.9-10.1 13.4.9 6.5 6.9 11 13.4 10.1 6.5-.9 11-6.9 10.1-13.4-1-6.5-7-11-13.4-10.1zm3.2 22.5c-5.9.8-11.4-3.3-12.2-9.2-.8-5.9 3.3-11.4 9.2-12.2 5.9-.8 11.4 3.3 12.2 9.2.8 5.9-3.3 11.3-9.2 12.2z" fill="#00789d"/><ellipse transform="rotate(-38.344 108.693 8.663)" class="st5" cx="108.7" cy="8.7" rx="2.2" ry="5.1"/></svg>