<svg xmlns="http://www.w3.org/2000/svg" viewBox="1510 1944 20 11.41"><path data-name="Path 155" d="M1519.785 1955.362h1.2a1.008 1.008 0 0 0 .545-.238.875.875 0 0 0 .164-.525s-.023-1.6.721-1.84 1.676 1.55 2.675 2.236a1.893 1.893 0 0 0 1.329.405l2.671-.037s1.4-.086.735-1.185a8.925 8.925 0 0 0-1.986-2.3c-1.675-1.554-1.45-1.3.567-3.992 1.225-1.636 1.717-2.636 1.563-3.064-.146-.408-1.05-.3-1.05-.3l-3.007.019a.683.683 0 0 0-.388.068.843.843 0 0 0-.266.323 17.412 17.412 0 0 1-1.111 2.345c-1.339 2.274-1.875 2.394-2.093 2.253-.509-.329-.382-1.322-.382-2.027 0-2.2.334-3.122-.651-3.36a5.135 5.135 0 0 0-1.403-.143 6.482 6.482 0 0 0-2.5.255c-.338.17-.602.545-.441.565a1.35 1.35 0 0 1 .888.446 2.9 2.9 0 0 1 .3 1.361s.177 2.594-.414 2.916c-.405.221-.961-.23-2.155-2.293a19.177 19.177 0 0 1-1.077-2.224.894.894 0 0 0-.247-.335 1.246 1.246 0 0 0-.463-.191l-2.857.023s-.429.012-.587.198c-.14.166-.011.509-.011.509s2.237 5.235 4.771 7.87a6.862 6.862 0 0 0 4.961 2.26z" fill="#dedede"/></svg>