<svg xmlns="http://www.w3.org/2000/svg" viewBox="1450 1943 20 13.943"><path data-name="Path 156" d="M1469.655 1945.243a2.525 2.525 0 0 0-2.162-1.965A67.225 67.225 0 0 0 1460 1943a67.251 67.251 0 0 0-7.487.278 2.528 2.528 0 0 0-2.162 1.965 21.472 21.472 0 0 0-.351 4.73 21.458 21.458 0 0 0 .348 4.727 2.521 2.521 0 0 0 2.162 1.965 67.225 67.225 0 0 0 7.49.278 67.251 67.251 0 0 0 7.492-.278 2.528 2.528 0 0 0 2.16-1.965 21.458 21.458 0 0 0 .348-4.727 21.47 21.47 0 0 0-.345-4.73zm-12.236 7.834v-6.617c2.119 1.107 4.225 2.205 6.358 3.318-2.127 1.105-4.233 2.195-6.358 3.299z" fill="#dedede"/></svg>