<svg width="12" height="21" xmlns="http://www.w3.org/2000/svg" xmlns:xlink="http://www.w3.org/1999/xlink"><use xlink:href="#path0_fill" transform="translate(.261 .4)" fill="#FFF"/><defs><path id="path0_fill" d="M11.692 10.025a.696.696 0 0 0-.2-.463L2.128.201A.692.692 0 0 0 1.667 0c-.16 0-.341.08-.462.2L.201 1.206A.695.695 0 0 0 0 1.668c0 .161.08.342.2.462l7.896 7.896L.201 17.92a.693.693 0 0 0-.201.462c0 .18.08.341.2.462l1.005 1.004c.12.12.302.201.462.201.161 0 .342-.08.462-.2l9.362-9.362a.695.695 0 0 0 .201-.462z"/></defs></svg>