<svg width="13" height="21" xmlns="http://www.w3.org/2000/svg" xmlns:xlink="http://www.w3.org/1999/xlink"><use xlink:href="#path0_fill" transform="translate(.9 .4)" fill="#FFF"/><defs><path id="path0_fill" d="M11.692 1.667c0-.18-.08-.341-.2-.462L10.486.201A.692.692 0 0 0 10.025 0a.696.696 0 0 0-.463.2L.201 9.563a.697.697 0 0 0-.201.463c0 .16.08.341.2.462l9.362 9.361c.121.12.302.201.463.201.16 0 .341-.08.462-.2l1.004-1.005a.695.695 0 0 0 .201-.462.692.692 0 0 0-.2-.462l-7.896-7.895 7.895-7.896c.12-.12.201-.3.201-.462z"/></defs></svg>