<svg width="13" height="17" xmlns="http://www.w3.org/2000/svg" xmlns:xlink="http://www.w3.org/1999/xlink"><use xlink:href="#path0_fill" transform="translate(3.161)" fill="#FFF"/><use xlink:href="#path1_fill" transform="translate(0 8.703)" fill="#FFF"/><defs><path id="path0_fill" d="M3.212 8.735h.1c.917-.017 1.659-.363 2.206-1.024 1.205-1.457 1.005-3.955.983-4.193C6.423 1.728 5.634.873 4.983.473A3.299 3.299 0 0 0 3.3 0h-.054C2.9 0 2.216.06 1.562.46.905.86.104 1.715.026 3.518c-.022.238-.223 2.736.982 4.193.545.661 1.287 1.007 2.204 1.024zM.862 3.602l.002-.027C.968 1.168 2.561.91 3.243.91h.038c.845.02 2.281.39 2.378 2.665 0 .01 0 .02.003.027.003.023.222 2.306-.773 3.508-.394.477-.92.712-1.612.718h-.031c-.688-.006-1.217-.241-1.609-.718C.645 5.915.858 3.622.861 3.602z"/><path id="path1_fill" d="M12.854 4.175v-.01c0-.027-.003-.054-.003-.084-.018-.665-.059-2.22-1.417-2.716l-.032-.01C9.991.969 8.817.095 8.805.085a.404.404 0 0 0-.589.112.474.474 0 0 0 .104.63c.053.041 1.298.97 2.857 1.4.73.28.81 1.115.832 1.88 0 .03 0 .057.004.084.003.302-.016.769-.066 1.038-.507.308-2.494 1.376-5.518 1.376-3.01 0-5.01-1.07-5.52-1.38a6.18 6.18 0 0 1-.066-1.037c0-.027.003-.054.003-.084.022-.765.103-1.601.832-1.88 1.559-.43 2.805-1.363 2.858-1.4a.474.474 0 0 0 .103-.63.404.404 0 0 0-.588-.112c-.013.01-1.18.883-2.598 1.27a.189.189 0 0 0-.031.01c-1.359.5-1.4 2.054-1.418 2.715 0 .03 0 .057-.003.084v.01c-.003.175-.006 1.071.16 1.52a.425.425 0 0 0 .162.212c.094.067 2.344 1.605 6.11 1.605 3.764 0 6.015-1.54 6.109-1.605a.444.444 0 0 0 .162-.211c.157-.447.154-1.343.15-1.517z"/></defs></svg>