<svg width="12" height="13" xmlns="http://www.w3.org/2000/svg" xmlns:xlink="http://www.w3.org/1999/xlink"><use xlink:href="#path0_fill" fill="#333"/><defs><path id="path0_fill" d="M11.731 10.282L9.878 8.27c-.37-.4-.98-.387-1.363.028L7.582 9.31l-.185-.11c-.59-.355-1.396-.84-2.245-1.764-.852-.924-1.3-1.802-1.628-2.442-.034-.068-.067-.134-.1-.196l.626-.68.309-.334c.382-.415.393-1.079.024-1.48L2.53.293c-.368-.4-.98-.388-1.362.028L.645.89.66.906a3.363 3.363 0 0 0-.43.824 3.66 3.66 0 0 0-.192.836C-.207 4.769.72 6.782 3.236 9.513c3.478 3.776 6.28 3.491 6.401 3.477a2.956 2.956 0 0 0 1.529-.676l.011.011.53-.563c.381-.415.392-1.079.024-1.48z"/></defs></svg>