<svg width="12" height="10" xmlns="http://www.w3.org/2000/svg" xmlns:xlink="http://www.w3.org/1999/xlink"><use xlink:href="#path0_fill" transform="translate(0 .429)" fill="#FFF"/><defs><path id="path0_fill" d="M11.143 8.357a.22.22 0 0 1-.214.214H1.07a.22.22 0 0 1-.214-.214V3.214c.14.161.295.308.462.442A91.88 91.88 0 0 1 4.172 5.92c.502.422 1.125.937 1.821.937h.014c.696 0 1.319-.515 1.821-.937a91.88 91.88 0 0 1 2.853-2.264c.167-.134.321-.281.462-.442v5.143zm0-7.038c0 .57-.55 1.313-.985 1.654a415.08 415.08 0 0 0-2.685 2.123C7.118 5.384 6.475 6 6.007 6h-.014c-.468 0-1.111-.616-1.466-.904-.89-.71-1.788-1.42-2.685-2.123-.603-.475-.985-1.138-.985-1.902 0-.113.1-.214.214-.214h9.858c.254 0 .214.295.214.462zM12 1.071C12 .482 11.518 0 10.929 0H1.07C.482 0 0 .482 0 1.071v7.286c0 .59.482 1.072 1.071 1.072h9.858c.589 0 1.071-.483 1.071-1.072V1.071z"/></defs></svg>