<svg width="11" height="11" xmlns="http://www.w3.org/2000/svg" xmlns:xlink="http://www.w3.org/1999/xlink"><use xlink:href="#path0_fill" fill="#7A84D6"/><defs><path id="path0_fill" d="M10.94 10.648L7.735 7.44a4.268 4.268 0 0 0 1.324-3.078C9.059 1.956 7.027 0 4.529 0 2.032 0 0 1.956 0 4.361s2.032 4.362 4.53 4.362a4.615 4.615 0 0 0 2.886-1.004l3.213 3.217a.22.22 0 0 0 .305.006.203.203 0 0 0 .006-.294zm-6.41-2.34C2.27 8.307.43 6.537.43 4.36.431 2.185 2.27.415 4.53.415s4.098 1.77 4.098 3.946S6.79 8.307 4.53 8.307z"/></defs></svg>