<svg width="42" height="26" xmlns="http://www.w3.org/2000/svg" xmlns:xlink="http://www.w3.org/1999/xlink"><use xlink:href="#path0_fill" fill="#242B64"/><use xlink:href="#path1_fill" transform="translate(10.52 20.594)" fill="#242B64"/><use xlink:href="#path2_fill" transform="translate(33.67 20.594)" fill="#242B64"/><use xlink:href="#path3_fill" transform="translate(16.84 17.848)" fill="#242B64"/><use xlink:href="#path4_fill" transform="translate(1.4 15.102)" fill="#242B64"/><use xlink:href="#path5_fill" transform="translate(11.92 6.178)" fill="#242B64"/><defs><path id="path0_fill" d="M39.06 11.022l-1.088-4.257a.647.647 0 0 0 .52-.63V5.45c0-1.49-1.238-2.703-2.761-2.703h-4.954V1.33c0-.733-.61-1.33-1.36-1.33H4.166c-.75 0-1.36.597-1.36 1.33V13a.65.65 0 0 0 .658.644.65.65 0 0 0 .658-.644V1.33c0-.024.02-.043.044-.043h25.253c.024 0 .043.02.043.043V13a.65.65 0 0 0 .658.644.65.65 0 0 0 .658-.644v-.73h7.76a2.149 2.149 0 0 1 2.043 1.46h-2.045a.65.65 0 0 0-.657.643v1.373c0 1.112.924 2.017 2.06 2.017h.746v2.831h-1.72c-.565-1.596-2.115-2.746-3.936-2.746-1.82 0-3.371 1.15-3.936 2.746h-.317v-4.848a.65.65 0 0 0-.657-.644.65.65 0 0 0-.658.644v4.848H15.817c-.565-1.596-2.115-2.746-3.936-2.746-1.82 0-3.371 1.15-3.936 2.746h-3.78a.043.043 0 0 1-.044-.043v-1.416h2.85a.65.65 0 0 0 .657-.643.65.65 0 0 0-.657-.644H.658a.65.65 0 0 0-.658.644.65.65 0 0 0 .658.643h2.148v1.416c0 .734.61 1.33 1.359 1.33h3.552v.043C7.716 24.172 9.584 26 11.88 26c2.296 0 4.165-1.828 4.165-4.076l-.001-.043h14.82v.043c0 2.248 1.868 4.076 4.164 4.076 2.297 0 4.165-1.828 4.165-4.076l-.001-.043h2.15a.65.65 0 0 0 .657-.643v-6.865c0-1.695-1.278-3.103-2.94-3.35zm-8.283-6.989h4.954c.797 0 1.447.635 1.447 1.416v.043h-6.401V4.033zm0 6.95V6.78h5.843l1.074 4.205h-6.917zM11.88 24.714c-1.571 0-2.85-1.25-2.85-2.789 0-1.537 1.279-2.788 2.85-2.788 1.571 0 2.85 1.25 2.85 2.788 0 1.538-1.279 2.79-2.85 2.79zm23.148 0c-1.571 0-2.85-1.25-2.85-2.789 0-1.537 1.279-2.788 2.85-2.788 1.572 0 2.85 1.25 2.85 2.788 0 1.538-1.278 2.79-2.85 2.79zm5.656-8.238h-.745a.738.738 0 0 1-.746-.729v-.73h1.49v1.46z"/><path id="path1_fill" d="M1.36 0C.61 0 0 .597 0 1.33c0 .733.61 1.33 1.36 1.33.749 0 1.358-.597 1.358-1.33C2.718.597 2.108 0 1.36 0z"/><path id="path2_fill" d="M1.36 0C.61 0 0 .597 0 1.33c0 .733.61 1.33 1.36 1.33.749 0 1.358-.597 1.358-1.33C2.718.597 2.108 0 1.36 0z"/><path id="path3_fill" d="M10.478 0H.658A.65.65 0 0 0 0 .644a.65.65 0 0 0 .658.643h9.82a.65.65 0 0 0 .658-.643.65.65 0 0 0-.658-.644z"/><path id="path4_fill" d="M9.075 0H.658A.65.65 0 0 0 0 .644a.65.65 0 0 0 .658.643h8.417a.65.65 0 0 0 .658-.643A.65.65 0 0 0 9.075 0z"/><path id="path5_fill" d="M10.943.188a.668.668 0 0 0-.93 0L4.165 5.913 1.123 2.934a.668.668 0 0 0-.93 0 .634.634 0 0 0 0 .91L3.7 7.277a.663.663 0 0 0 .465.188.662.662 0 0 0 .465-.188l6.313-6.178a.634.634 0 0 0 0-.91z"/></defs></svg>