<svg width="20" height="18" xmlns="http://www.w3.org/2000/svg" xmlns:xlink="http://www.w3.org/1999/xlink"><use xlink:href="#path0_fill" transform="translate(.349 .421)" fill="#FFF"/><use xlink:href="#path1_fill" transform="translate(4 10.514)" fill="#FFF"/><use xlink:href="#path2_fill" transform="translate(6.13 10.514)" fill="#FFF"/><use xlink:href="#path3_fill" transform="translate(8.261 10.514)" fill="#FFF"/><use xlink:href="#path4_fill" transform="translate(10.392 10.514)" fill="#FFF"/><use xlink:href="#path5_fill" transform="translate(12.522 10.514)" fill="#FFF"/><use xlink:href="#path6_fill" transform="translate(14.653 10.514)" fill="#FFF"/><use xlink:href="#path7_fill" transform="translate(14.653 12.155)" fill="#FFF"/><defs><path id="path0_fill" d="M17.842 5.849h-7.114V.678c0-.374-.318-.678-.708-.678H8.679c-.39 0-.708.304-.708.678v5.17H.857c-.473 0-.857.369-.857.821v1.769c0 .452.384.82.857.82H.98l.965 6.57c.13.878.925 1.54 1.852 1.54h11.105c.926 0 1.722-.662 1.851-1.54l.966-6.57h.123c.473 0 .857-.368.857-.82v-1.77c0-.452-.384-.82-.857-.82zM8.716.713h1.267v6.812H8.716V.713zm7.3 15.016c-.078.528-.557.926-1.114.926H3.797c-.557 0-1.036-.398-1.114-.927l-.95-6.47h15.233l-.95 6.47zm1.938-7.292a.11.11 0 0 1-.112.107H.857a.11.11 0 0 1-.112-.107V6.67a.11.11 0 0 1 .112-.107H7.97v.999c0 .373.318.677.708.677h1.34c.391 0 .709-.304.709-.677v-.999h7.114a.11.11 0 0 1 .112.107v1.768z"/><path id="path1_fill" d="M.372 0A.365.365 0 0 0 0 .357V5.35c0 .197.167.356.372.356.206 0 .373-.16.373-.356V.357A.365.365 0 0 0 .372 0z"/><path id="path2_fill" d="M.372 0A.365.365 0 0 0 0 .357V5.35c0 .197.167.356.372.356.206 0 .373-.16.373-.356V.357A.365.365 0 0 0 .372 0z"/><path id="path3_fill" d="M.372 0A.365.365 0 0 0 0 .357V5.35c0 .197.167.356.372.356.206 0 .373-.16.373-.356V.357A.365.365 0 0 0 .372 0z"/><path id="path4_fill" d="M.372 0A.365.365 0 0 0 0 .357V5.35c0 .197.167.356.372.356.206 0 .373-.16.373-.356V.357A.365.365 0 0 0 .372 0z"/><path id="path5_fill" d="M.372 0A.365.365 0 0 0 0 .357V5.35c0 .197.167.356.372.356.206 0 .373-.16.373-.356V.357A.365.365 0 0 0 .372 0z"/><path id="path6_fill" d="M.372 0A.365.365 0 0 0 0 .357v.285C0 .84.167 1 .372 1 .578 1 .745.84.745.643V.357A.365.365 0 0 0 .372 0z"/><path id="path7_fill" d="M.372 0A.365.365 0 0 0 0 .357v3.352c0 .197.167.357.372.357.206 0 .373-.16.373-.357V.357A.365.365 0 0 0 .372 0z"/></defs></svg>