<svg xmlns="http://www.w3.org/2000/svg" viewBox="0 0 512 512"><path fill="#4eb9ff" d="M396.78 231.337L280.663 115.222 395.881.005 511.996 116.12z"/><path d="M85.366 449.475l-33.852 33.852c-6.297 6.297-16.541 6.297-22.838 0-6.297-6.297-6.297-16.541 0-22.838l33.852-33.852-16.943-16.943-33.852 33.853c-15.639 15.639-15.638 41.084 0 56.723 15.639 15.639 41.085 15.639 56.723 0l33.852-33.852-16.942-16.943z" fill="#ff80ab"/><path d="M283.295 83.968L21.847 345.415c-20.552 20.552-20.552 53.874 0 74.427l70.315 70.315c20.552 20.552 53.875 20.552 74.427 0L428.037 228.71 283.295 83.968z" fill="#ff4181"/><path fill="#fff" d="M299.657 261.663L180.9 380.42l-49.32-49.32 118.759-118.758z"/><path fill="#ff80ab" d="M332.617 228.708l-32.957 32.957-49.32-49.32 32.957-32.957z"/><path d="M300.76 274.739a11.937 11.937 0 0 1-8.471-3.509l-51.516-51.516c-4.678-4.678-4.678-12.264 0-16.944s12.264-4.678 16.944 0l51.516 51.516c4.678 4.678 4.678 12.264 0 16.944a11.943 11.943 0 0 1-8.473 3.509z" fill="#ffc0d5"/><path d="M373.942 110.261a11.937 11.937 0 0 1-8.471-3.509c-4.678-4.678-4.678-12.264 0-16.944l21.946-21.946c4.68-4.678 12.263-4.678 16.944 0 4.678 4.678 4.678 12.264 0 16.944l-21.946 21.946a11.943 11.943 0 0 1-8.473 3.509zm39.781 39.781a11.937 11.937 0 0 1-8.471-3.509c-4.678-4.678-4.678-12.264 0-16.944l21.946-21.946c4.68-4.678 12.263-4.678 16.944 0 4.678 4.678 4.678 12.264 0 16.944l-21.946 21.946a11.945 11.945 0 0 1-8.473 3.509z" fill="#174461"/></svg>