<svg xmlns="http://www.w3.org/2000/svg" viewBox="0 0 512 512"><path fill="#4eb9ff" d="M205.878 343.394l-66.189-66.187-55.274 55.275 1.066 65.122 30.887 35.3z"/><path fill="#9ad7ff" d="M84.415 332.482L17.21 399.687l31.952 100.422 67.206-67.205z"/><path d="M464.344 109.225c24.986-24.986 24.986-65.497 0-90.485-24.986-24.986-65.497-24.986-90.485 0l-10.053 10.053 28.486 61.999 61.999 28.486 10.053-10.053z" fill="#174461"/><path fill="#ff755c" d="M363.806 28.793L110.785 281.815l21.783 68.701 68.702 21.783 253.021-253.021z"/><path d="M379.037 132.533c7.866-7.866 7.866-20.62 0-28.486s-20.62-7.866-28.486 0l-43.567 43.567-7.261 26.252-26.252 7.261-93.836 93.836c-7.866 7.866-7.866 20.62 0 28.486s20.62 7.866 28.486 0l93.836-93.836 7.261-26.252 26.252-7.261 43.567-43.567z" fill="#9ad7ff"/><path fill="#174461" d="M335.472 176.104l-33.512 33.512-28.486-28.485 33.513-33.513z"/><path d="M143.073 512h-33.442c-6.544 0-11.849-5.306-11.849-11.849s5.305-11.849 11.849-11.849h33.442c6.544 0 11.849 5.306 11.849 11.849S149.617 512 143.073 512zm84.967 0h-33.442c-6.544 0-11.849-5.306-11.849-11.849s5.305-11.849 11.849-11.849h33.442c6.544 0 11.849 5.306 11.849 11.849S234.584 512 228.04 512zm84.967 0h-33.443c-6.544 0-11.849-5.306-11.849-11.849s5.305-11.849 11.849-11.849h33.443c6.544 0 11.849 5.306 11.849 11.849S319.551 512 313.007 512zm84.967 0h-33.442c-6.544 0-11.849-5.306-11.849-11.849s5.305-11.849 11.849-11.849h33.442c6.544 0 11.849 5.306 11.849 11.849S404.518 512 397.974 512zm84.967 0h-33.442c-6.544 0-11.849-5.306-11.849-11.849s5.305-11.849 11.849-11.849h33.442c6.544 0 11.849 5.306 11.849 11.849S489.485 512 482.941 512z" fill="#9ad7ff"/></svg>