<svg xmlns="http://www.w3.org/2000/svg" viewBox="0 0 512 512"><path fill="#ffb14e" d="M11.584 21.232h488.833V253.08H11.584z"/><path d="M11.584 278.787C5.186 278.787 0 283.974 0 290.371v20.627h23.167v-20.627c0-6.397-5.186-11.584-11.583-11.584zm97.766 0c-6.398 0-11.584 5.187-11.584 11.584v20.627h23.167v-20.627c.001-6.397-5.185-11.584-11.583-11.584zm97.767 0c-6.398 0-11.584 5.187-11.584 11.584v20.627H218.7v-20.627c0-6.397-5.186-11.584-11.583-11.584zm97.766 0c-6.398 0-11.584 5.187-11.584 11.584v20.627h23.167v-20.627c.001-6.397-5.185-11.584-11.583-11.584zm97.767 0c-6.398 0-11.584 5.187-11.584 11.584v20.627h23.167v-20.627c.001-6.397-5.186-11.584-11.583-11.584zm97.766 0c-6.398 0-11.584 5.187-11.584 11.584v20.627H512v-20.627c0-6.397-5.186-11.584-11.584-11.584z" fill="#ffce47"/><path fill="#174461" d="M227.041 311h57.919v179.768h-57.919z"/><path d="M500.416 322.581H11.584C5.186 322.581 0 317.394 0 310.998c0-6.397 5.186-11.584 11.584-11.584h488.833c6.398 0 11.584 5.187 11.584 11.584-.001 6.396-5.187 11.583-11.585 11.583z" fill="#3b8bc0"/></svg>