<svg xmlns="http://www.w3.org/2000/svg" viewBox="0 0 512 512"><path d="M297.165 324.361c0 59.325 48.093 107.417 107.417 107.417S512 383.686 512 324.361C512 256 404.583 80.223 404.583 80.223S297.165 256 297.165 324.361z" fill="#ff4181"/><path d="M404.583 389.313c-6.701 0-12.133-5.432-12.133-12.133s5.432-12.133 12.133-12.133c22.436 0 40.688-18.252 40.688-40.687 0-6.701 5.432-12.133 12.133-12.133s12.133 5.432 12.133 12.133c-.001 35.816-29.139 64.953-64.954 64.953z" fill="#fff"/><path d="M148.583 324.361c0 59.325 48.093 107.417 107.417 107.417s107.417-48.093 107.417-107.417C363.417 256 256 80.223 256 80.223S148.583 256 148.583 324.361z" fill="#ffce47"/><path d="M256 389.313c-6.701 0-12.133-5.432-12.133-12.133s5.432-12.133 12.133-12.133c22.436 0 40.688-18.252 40.688-40.687 0-6.701 5.432-12.133 12.133-12.133 6.701 0 12.133 5.432 12.133 12.133-.002 35.816-29.139 64.953-64.954 64.953z" fill="#fff"/><path d="M0 324.361c0 59.325 48.093 107.417 107.417 107.417s107.417-48.093 107.417-107.417c0-68.36-107.417-244.138-107.417-244.138S0 256 0 324.361z" fill="#4eb9ff"/><path d="M107.417 389.313c-6.701 0-12.133-5.432-12.133-12.133s5.432-12.133 12.133-12.133c22.436 0 40.688-18.252 40.688-40.687 0-6.701 5.432-12.133 12.133-12.133 6.701 0 12.133 5.432 12.133 12.133 0 35.816-29.138 64.953-64.954 64.953z" fill="#fff"/></svg>