<svg xmlns="http://www.w3.org/2000/svg" viewBox="2650 754 20 20">
  <defs>
    <style>
      .cls-1 {
        fill: #bfbfbf;
      }

      .cls-2 {
        fill: none;
      }
    </style>
  </defs>
  <g id="Group_40" data-name="Group 40" transform="translate(2020 93)">
    <g id="ic_shopping_cart_black_24px" transform="translate(630 661)">
      <path id="Path_31" data-name="Path 31" class="cls-1" d="M6,15.333A1.667,1.667,0,1,0,7.667,17,1.664,1.664,0,0,0,6,15.333ZM1,2V3.667H2.667l3,6.325L4.542,12.033a1.611,1.611,0,0,0-.208.8A1.672,1.672,0,0,0,6,14.5H16V12.833H6.35a.206.206,0,0,1-.208-.208l.025-.1.75-1.358h6.208a1.659,1.659,0,0,0,1.458-.858L17.567,4.9a.814.814,0,0,0,.1-.4.836.836,0,0,0-.833-.833H4.508L3.725,2H1ZM14.333,15.333A1.667,1.667,0,1,0,16,17,1.664,1.664,0,0,0,14.333,15.333Z" transform="translate(-0.167 -0.333)"/>
      <path id="Path_32" data-name="Path 32" class="cls-2" d="M0,0H20V20H0Z"/>
    </g>
  </g>
</svg>
