<svg xmlns="http://www.w3.org/2000/svg" viewBox="1510 1944 20 11.41">
  <defs>
    <style>
      .cls-1 {
        fill: #dedede;
      }
    </style>
  </defs>
  <path id="Path_155" data-name="Path 155" class="cls-1" d="M9.785,11.362h1.2a1.008,1.008,0,0,0,.545-.238.875.875,0,0,0,.164-.525s-.023-1.6.721-1.84,1.676,1.55,2.675,2.236a1.893,1.893,0,0,0,1.329.405l2.671-.037s1.4-.086.735-1.185a8.925,8.925,0,0,0-1.986-2.3c-1.675-1.554-1.45-1.3.567-3.992C19.631,2.25,20.123,1.25,19.969.822c-.146-.408-1.05-.3-1.05-.3L15.912.541a.683.683,0,0,0-.388.068.843.843,0,0,0-.266.323,17.412,17.412,0,0,1-1.111,2.345c-1.339,2.274-1.875,2.394-2.093,2.253-.509-.329-.382-1.322-.382-2.027,0-2.2.334-3.122-.651-3.36A5.135,5.135,0,0,0,9.618,0a6.482,6.482,0,0,0-2.5.255C6.78.425,6.516.8,6.677.82a1.35,1.35,0,0,1,.888.446,2.9,2.9,0,0,1,.3,1.361s.177,2.594-.414,2.916c-.405.221-.961-.23-2.155-2.293A19.177,19.177,0,0,1,4.219,1.026.894.894,0,0,0,3.972.691,1.246,1.246,0,0,0,3.509.5L.652.523S.223.535.065.721c-.14.166-.011.509-.011.509S2.291,6.465,4.825,9.1a6.862,6.862,0,0,0,4.961,2.26Z" transform="translate(1510 1944)"/>
</svg>
