<svg xmlns="http://www.w3.org/2000/svg" viewBox="1570 1940 20 20">
  <defs>
    <style>
      .cls-1 {
        fill: #dedede;
      }
    </style>
  </defs>
  <g id="Group_89" data-name="Group 89" transform="translate(1570 1940)">
    <path id="Path_153" data-name="Path 153" class="cls-1" d="M16.333,0H3.667A3.671,3.671,0,0,0,0,3.667V16.333A3.671,3.671,0,0,0,3.667,20H16.333A3.671,3.671,0,0,0,20,16.333V3.667A3.671,3.671,0,0,0,16.333,0ZM10,16.584A6.584,6.584,0,1,1,16.584,10,6.591,6.591,0,0,1,10,16.584ZM16.8,4.777A1.558,1.558,0,1,1,18.353,3.22,1.56,1.56,0,0,1,16.8,4.777Z"/>
    <path id="Path_154" data-name="Path 154" class="cls-1" d="M16.892,13.091a3.8,3.8,0,1,0,3.8,3.8A3.807,3.807,0,0,0,16.892,13.091Z" transform="translate(-6.892 -6.893)"/>
  </g>
</svg>
